<?xml version="1.0" encoding="UTF-8"?>
<svg id="Layer_2" xmlns="http://www.w3.org/2000/svg" viewBox="0 0 579.22 184.05">
  <defs>
    <style>
      .cls-1 {
        fill: #3f3f3f;
      }

      .cls-2 {
        fill: #fff;
      }

      .cls-3, .cls-4 {
        fill: none;
      }

      .cls-5 {
        fill: #231f20;
      }

      .cls-6 {
        fill: #a8a8a8;
      }

      .cls-7 {
        fill: #ffca05;
      }

      .cls-8 {
        fill: #ec1c24;
      }

      .cls-9 {
        fill: #00497f;
      }

      .cls-10 {
        fill: #777369;
      }

      .cls-4 {
        isolation: isolate;
        opacity: .43;
        stroke: #000;
        stroke-miterlimit: 10;
        stroke-width: .5px;
      }

      .cls-11 {
        fill: #fff698;
      }
    </style>
  </defs>
  <g id="Layer_1-2" data-name="Layer_1">
    <g>
      <path class="cls-6" d="M185.39,92.05c0,50.81-41.49,92-92.68,92S0,142.85,0,92.05,41.5,0,92.71,0c51.18-.01,92.68,41.19,92.68,92.05Z"/>
      <path class="cls-8" d="M92.71,3.58C43.51,3.58,3.62,43.17,3.62,92.04s39.88,88.41,89.09,88.41,89.04-39.58,89.04-88.41S141.87,3.58,92.71,3.58Z"/>
      <path class="cls-8" d="M117.78,74.38c0,13.77-11.23,24.93-25.07,24.93s-25.12-11.15-25.12-24.93,11.24-24.91,25.12-24.91c13.84,0,25.07,11.16,25.07,24.91Z"/>
      <path class="cls-9" d="M92.71,3.58C43.51,3.58,3.62,43.17,3.62,92.04s39.88,88.41,89.09,88.41,89.04-39.58,89.04-88.41S141.87,3.58,92.71,3.58ZM92.71,148.09c-31.19,0-56.46-25.1-56.46-56.04s25.27-56.09,56.46-56.09,56.44,25.12,56.44,56.09-25.27,56.04-56.44,56.04Z"/>
      <polygon class="cls-7" points="12.72 87.4 19.85 92.48 26.88 87.31 24.23 95.59 31.35 100.65 22.61 100.73 19.98 109 17.22 100.75 8.45 100.83 15.48 95.67 12.72 87.4"/>
      <polygon class="cls-7" points="172.65 87.4 165.53 92.48 158.48 87.31 161.14 95.59 154.01 100.65 162.76 100.73 165.41 109 168.16 100.75 176.91 100.83 169.89 95.67 172.65 87.4"/>
      <g>
        <path class="cls-3" d="M92.72,68.51c-2.36,1.59-4.44,4.62-4.44,10.39,0,3.22,1.83,5.68,4.44,7.56,2.64-1.88,4.46-4.34,4.46-7.56,0-5.77-2.08-8.79-4.46-10.39Z"/>
        <path class="cls-2" d="M53.13,63.02h-2.72l17.69,46.57,3.53-1.33s-14.03-36.98-15.77-41.48h12.93c.42-1.28.97-2.57,1.57-3.76h-17.23Z"/>
        <path class="cls-2" d="M132.35,63.02h-17.33c.61,1.19,1.15,2.48,1.57,3.76h13.05c-1.72,4.51-15.78,41.48-15.78,41.48l3.53,1.33,17.69-46.57h-2.73Z"/>
      </g>
      <g>
        <path class="cls-11" d="M64.55,137.57c8-6.32,17.67-10.07,28.16-10.07s20.15,3.75,28.15,10.07c2.76,5.27,19.02-11.46,15.54-14.42-10.91-10.92-26.46-17.77-43.7-17.77s-32.81,6.85-43.74,17.77c-4.32,4.1,11.45,19.21,15.59,14.42Z"/>
        <path class="cls-3" d="M64.55,137.57c8.17,5,17.81,7.89,28.16,7.89s19.94-2.89,28.15-7.89c-8.01-6.32-17.71-10.07-28.15-10.07-10.49,0-20.16,3.75-28.16,10.07Z"/>
      </g>
      <path class="cls-7" d="M79.05,95.31c3.93,2.52,8.59,4,13.65,4s9.72-1.48,13.64-4c-2.59-.28-8.57-1.2-13.62-3.94-5.08,2.78-11.12,3.65-13.67,3.94Z"/>
      <path class="cls-7" d="M96.71,66.93c2.51,2.53,4.27,6.4,4.27,11.97,0,4.25-1.78,7.4-4.32,9.76,5.03,2.24,10.99,3.16,13.64,3.49,4.63-4.52,7.48-10.82,7.48-17.77,0-2.63-.41-5.19-1.2-7.6h-17.91c-.47,0-1.16.03-1.96.15Z"/>
      <path class="cls-7" d="M92.72,64.25c1.94-.84,3.99-1.22,5.95-1.22h16.34c-4.19-8.05-12.59-13.55-22.31-13.55s-18.17,5.5-22.34,13.55h16.44c1.95-.01,4.02.38,5.92,1.22Z"/>
      <path class="cls-7" d="M84.51,78.91c0-5.58,1.74-9.44,4.24-11.97-.79-.13-1.47-.15-1.94-.15h-18.01c-.77,2.41-1.21,4.97-1.21,7.6,0,6.95,2.88,13.25,7.5,17.77,2.6-.32,8.63-1.24,13.74-3.49-2.56-2.37-4.32-5.52-4.32-9.76Z"/>
      <path class="cls-7" d="M97.19,78.91c0,3.22-1.82,5.68-4.46,7.56-2.61-1.88-4.44-4.34-4.44-7.56,0-5.78,2.08-8.8,4.44-10.39,2.37,1.59,4.46,4.61,4.46,10.39Z"/>
      <path class="cls-2" d="M54.74,37.36c.57-.05,1.02.17,1.25.52l.18.83c-.04.8-.4,1.47-1.15,2.01-.53.4-1.09.62-1.67.66-.59.05-1.04-.11-1.3-.44-.28-.35-.33-.82-.15-1.39.17-.57.55-1.08,1.11-1.5.57-.41,1.14-.64,1.73-.69ZM37.6,40.13c.73.01,1.37.21,1.95.59.53.38.53,1.28.05,2.66.68.04,1.2.21,1.56.56.4.38.61.92.67,1.63.08.76-.13,1.45-.46,2.18-.21.49-.67,1.16-1.38,2.04-.64.76-1.22,1.35-1.75,1.76-.31.23-.89.67-1.84,1.3-1.49,1.08-3.62,1.65-5.97,2.16-1.75.33-3.87.17-6.35-.42l-1.14,2.05,11.12,5.71-2.23.9c-3.35.4-6.03,2.84-7.7,7.15l-3.12,2.13c-.58-4.35-.28-8.78.88-12.93l-.27-.12c-1.92,4-3.44,8.22-4.55,12.53l-2.5,2.64c1.65-7.03,4.21-13.84,7.61-20.19l3.07-1.9-.06.1.06-.06.55-.02.76.22c.71.21,1.69.21,2.9.06,1.32-.12,2.41-.36,3.25-.77,2.53-1.23,4.35-2.51,5.63-3.95,1.01-1.24,1.36-2.17,1.04-2.76l-.53.86c-.54.65-1.11,1.1-1.73,1.34-.62.25-1.14.21-1.55-.12-.32-.26-.46-.69-.39-1.31.08-.6.36-1.19.83-1.77.38-.48.84-.88,1.38-1.17l.13-.12c-.05.04-.02-.18.09-.61l-.05-.04c-.16-.17-.58-.29-1.23-.39-.67-.11-1.13-.08-1.45,0l.14,3.47c-1.27-.65-2.53-.71-3.77-.15-.44.19-.86.53-1.19,1.04-.38.56-.62,1-.69,1.31.54-.73,1.14-1.41,1.95-1.83.82-.43,1.41-.5,1.8-.19.31.22.45.69.46,1.39-.02,1.36,0,2.66-.2,3.74l-3.08,1.73.16-1.34.44-2.52c.04-.26.06-.43.04-.52v.05s-.23.38-.23.38c-.7,1.4-1.15,2.28-1.41,2.66-.8,1.11-1.45,1.52-2.15,1.08-.59-.36-.95-1.23-.79-2.5.14-1.28.59-2.5,1.35-3.62.59-.84,1.27-1.59,2.16-2.12.85-.54,1.62-.82,2.28-.87l-.72-2.94c1.14-.11,3.24-.24,6.17-.17ZM24.1,60.63c-.5,1.91-.76,4.07-.69,6.45,1.44-2.09,3.14-3.54,4.95-4.46l-4.26-1.99ZM37.8,43.46l-.14.07.05.12.09-.19ZM133.94,23.9l1.78,3.14-3.66-2.27-6.27,10.81-1.44-2.84,4.06-7.67c.1-.33.15-.52.14-.63.04-.42-.16-.9-.62-1.43-.43-.52-1-.95-1.68-1.3l-1.85-.85-4.9,11.11-1.89-2.57,2.37-6.04c.1-.25-.02-.58-.36-1.01-.34-.42-.72-.74-1.16-.92-.37-.12-.71-.09-.98.04-.26.13-.41.59-.48,1.37l-2.32-.18c.36-.28.47-.57.3-.84-.3-.57-.55-.93-.72-1.11-.54-.54-1.3-1.01-2.31-1.26-.85-.2-1.62-.2-2.32.03-.67.21-1.07.55-1.17,1.05-.11.52.18.96.9,1.32v-.44c.11-.42.45-.71,1.05-.88.58-.16,1.27-.22,1.98.02,1.19.37,1.9,1,2.16,1.89.22.72.18,1.19-.1,1.39-.82.61-2,.69-3.56.22-1.7-.36-2.98-.98-3.93-1.85-.97-.85-1.36-1.8-1.18-2.83.16-.88.7-1.57,1.62-2.05,1.05-.54,2.37-.65,3.91-.33,1.58.25,2.85,1.09,3.84,2.1l.17.16c1.04-.48,2.03-.54,2.95-.2.9.3,1.53.8,1.97,1.29l.47.76.13.14.63-1.58c-8.31-3.28-17.2-5.08-26.1-5.36-.25.05-.61.16-1.07.29l-.12.12c0,.18.55.4,1.65.68.98.22,1.71.35,2.18.36.55.04,1.35-.09,2.35-.09l2.05-.08c.99.7,2.14,1.55,3.39,2.56-2.32.84-3.55,1.96-3.89,3.33l-.33,1.38c-.1.81.24,1.91.99,3.29-.04.27-.25.37-.62.32-.27-.04-.66-.16-1.2-.34-.53-.19-.82-.36-.85-.49l-.69-2.46c-.27-.9-.38-1.69-.32-2.39.05-.94.45-1.95,1.26-2.98-3.02-.3-5.3-.7-6.88-1.52-.14-.08-.65-.46-1.58-1.05-.45.11-.99.5-1.63,1.11-.64.62-.94,1.09-.92,1.37.02.31.34.46.99.43.37,0,1.41-.35,3.13-.79l1.23-.26.65.18h-.08c.41.13.85.36,1.32.72,1.22.93,1.77,1.84,1.7,2.72-.06.94-.68,1.72-1.8,2.35-1.13.63-2.44.84-3.98.86-2.3.11-4.31-.52-6.16-1.73-1.69-1.04-2.84-2.45-3.34-4.28l-.34-2.22c0-.3.12-.48.4-.5l.38.06c.73.09,1.2.19,1.46.3,0,1.33.54,2.54,1.54,3.62.73.89,1.89,1.58,3.43,2.07.71.23,1.41.32,2.14.25l2.36-.32c1.06-.21,1.6-.53,1.6-.9.02-.14-.07-.3-.25-.44l-.3-.25-.29.04c-1.33.25-2.41.35-3.3.44-.76.02-1.5-.04-2.21-.21-1.89-.63-2.92-1.55-3.03-2.77-.04-.62.48-1.45,1.69-2.45l.32-.28c-3.2.02-6.35.67-9.53,1.05l2.09,11.84-3.04-1.04-2.24-10.1-2.72.61-3.53-.77c1.78-.6,3.6-1.06,5.43-1.42-1.07-.3-1.65-.62-1.73-.95-.13-.48-.07-.88.2-1.19.66-.86,1.31-1.52,1.94-1.99.65-.46,1.62-1.06,2.94-1.63.94-.35,1.99-.61,3.14-.76,3.04-.49,6.38-.11,9.79.86,1.03.22,2.43.86,4.13,1.89l1.02,1.73c-1.66-.73-3.37-1.57-5.12-2.12-2.17-.71-4.69-1.2-7.43-.81-1.67.22-3,.58-3.97,1.08l-.97.5c-.35.22-.78.61-1.25,1.09-.58.6-.81.96-.74,1.07l.79.63c16.23-3.03,33.38-1.11,48.46,5.76h0s.21.1.21.1c1.92.98,3.13,2.02,3.6,3.06l.14-.38c.26-.75.67-1.67,1.26-2.8l1.32,1.59c-.14.5-.18.94-.13,1.37l.26.48,1.22.8ZM60.52,19.22l3.59.39-3.98,1.63,5.17,11.39-3.12-.45-3.91-7.74c-.2-.28-.34-.45-.42-.49-.32-.28-.84-.38-1.51-.34-.69.06-1.39.25-2.06.6-2.93,1.8-5.91,3.53-8.62,5.66l1.65,2.21c.06.09.22.34.47.8.1.19.2.27.27.23.86-.88,1.5-2.14,2.06-3.75.33-.88.65-1.41.94-1.59l.75-.2c2.56-.28,4.18.36,5.01,1.81.71,1.25.72,2.6.06,4.05-.62,1.54-1.98,2.74-3.77,4.16-1.85,1.36-3.65,2.06-5.31,2.32-2.95.38-5.85-.3-8.41-1.95-.19-.12-.79-.54-1.75-1.23l-.49.5-3.54,1.19c5.66-6.17,12.28-11.46,19.56-15.57h.07c1.66-.81,3.04-1.11,4.07-.9l-.23-.32c-.46-.63-.98-1.53-1.55-2.65l2.08-.14c.3.41.65.7,1.03.89l.54.04,1.35-.55ZM46,35.05c-.23-.17-.51-.45-.81-.81l-2.04-2.5-5.14,4.61,1.72-.89c1.57,1.27,3.45,1.91,5.54,1.93.95.02,1.69-.01,2.22-.15,1.2-.23,2.46-.72,3.7-1.66.74-.53,1.36-1.23,1.98-1.94.62-.7,1-1.35,1.14-1.97.15-.68.15-1.16-.03-1.45-.15-.25-.43-.42-.82-.5-.26.56-.85,1.49-1.72,2.8-.49.82-1.06,1.47-1.73,1.96-1.37,1.01-2.7,1.16-4.01.57ZM169.12,75.02l-1.12-4.17-11.68,3.31c.28-1.01.67-2.07.85-3.1l6.16-2.03c.24-.09.42-.39.51-.91s.05-1.02-.1-1.45c-.13-.36-.34-.63-.62-.75-.26-.1-.71.05-1.36.52l-1.26-1.94c.43.09.72,0,.85-.31.24-.59.32-.99.36-1.24.05-.76-.15-1.62-.58-2.56-.36-.79-.84-1.39-1.43-1.8-.56-.41-1.1-.49-1.54-.24-.47.24-.61.75-.47,1.54l.35-.27c.39-.19.81-.1,1.3.26.49.35.9.87,1.21,1.55.52,1.12.53,2.06.03,2.82-.41.63-.82.89-1.15.81-.98-.23-1.86-1.05-2.54-2.54-.72-1.56-1.02-3-1.05-4.24.02-1.25.46-2.15,1.36-2.68.78-.44,1.66-.48,2.65-.08,1.15.43,2.14,1.35,2.77,2.78.7,1.44,1.01,2.87.87,4.25v.24c1.04.48,1.67,1.24,1.97,2.19.28.9.37,1.69.29,2.34l-.26.82-.02.19,1.62-.53c-2.2-6.86-5.53-13.32-9.54-19.26l-.74-1.05c-.07.39-.3.72-.66.96-.51.36-1.1.42-1.75.31l.41.93c.6,1.53.9,2.72.78,3.65-.12.94-.57,1.68-1.36,2.24-.42.33-.99.29-1.71-.04-.69-.35-1.35-.8-1.79-1.45-.32-.47-.48-.93-.52-1.46-.02-.52.09-.89.37-1.07.36-.26.9-.21,1.61.2l.85.92.27.54c.24-.29.35-.72.22-1.43-.13-.81-.44-1.57-.89-2.22l-.14-.16-5.79,4.19.15.86c.14,1.73.09,2.83-.13,3.35-.08.47-.18.74-.3.85l.03-.02-.54.42-1.29.54c.48-1.37.68-2.93.59-4.65-.04-.23-.11-.87-.33-1.85-1.32-.22-2.44-.85-3.36-2-.55-.67-.89-1.37-1.15-2.08-.16-.84-.09-1.42.25-1.73.45-.44,1.11-.51,2-.19.83.27,1.52.86,2.16,1.64.43.52.8,1.22,1.13,2.11l.06-.05c.16-.13.35-.35.57-.69h.02c.14-1.74-.59-4.01-2.79-6.16l-.15-2.98c1.17.48,2.67,1.13,4.52,1.98.55.31,1.16.75,1.87,1.22l-.17-.4c-.29-1.04-.39-1.97-.35-2.77-2.12.11-3.59-.27-4.51-1.23-.56-.59-.96-1.33-1.3-2.2-.41-1.13-.47-1.79-.12-1.96.74-.11,1.23-.05,1.43.13.07.05.2.32.39.82.22.5.34.79.42.86.34.38.87.57,1.59.63.69.07,1.12.01,1.34-.19l.05-.1c-1.68-1.84-3.58-3.44-5.45-5.08l-1.36-3.34c13.53,10.5,23.57,25.43,28,42.02l-.86,3.66ZM144.2,50.82c-.07-.25-.26-.58-.55-.97-.59-.79-1.01-1.05-1.28-.8-.13.1-.1.3.13.58.32.39.77.73,1.33,1.01l.37.18ZM150.7,47.22c-1.04-.74-2.19-1.41-3.44-1.99.53,1.31.87,2.63,1.01,3.91l2.43-1.92ZM154.71,46.07c.37-.28.43-.67.22-1.23l-3-3.68-.19.67c-.13,1.15.27,2.2,1.22,3.22.45.57.89.89,1.33,1.02h.42Z"/>
      <path class="cls-2" d="M43.17,149.99c.04.38-.05.69-.26.95-.22.27-.49.41-.86.43-.36.05-.69-.03-.95-.27-.3-.23-.47-.56-.5-.92-.06-.37.03-.69.27-.95.22-.25.51-.39.86-.42.36-.03.67.06.93.28.28.23.45.52.51.9ZM151.1,125.87l-1.66,2.49c-.34-2.58-.34-4.82-1.12-7.32l.71-1.07c.79,1.92,1.65,3.98,2.07,5.9ZM51.35,145.47l.2,2.13-1.4-1.15-6.42,8.34-.22-1.2.35-2.24c.05-.8-.08-1.6-.41-2.41-.33-.79-.8-1.48-1.39-2.06l.24-2.5c2.56.24,4.75.67,6.61,1.35l.15-.19c-1.69-1.49-3.59-2.76-5.14-4.4l-7.66,7.82.05-2.29,5.43-5.32.34-.42c.19-.3.29-.64.25-1.03-.03-.37-.14-.68-.37-.94l-2.39-2.64-.77.64.26.3c.53.59.78,1.26.79,2.08,0,.8-.28,1.5-.89,2.05-.39.36-.79.6-1.2.67-.51.1-.93-.07-1.28-.47-.34-.36-.55-.73-.6-1.11-.1-.44.02-.81.37-1.09l.78-.27c.34-.02.57.04.7.22.41.45.6.8.6,1.05.07-.07.13-.23.18-.48.05-.37-.16-.8-.61-1.32l-.49-.43-5.91,5,.19-1.49c.4-.68.64-1.09.72-1.27.15-.32.31-.77.48-1.31.11-.34.1-.74,0-1.22-.65.08-1.16-.18-1.56-.76-.24-.36-.33-.76-.26-1.18.07-.41.26-.76.62-1,.38-.28.79-.35,1.2-.26.43.1.76.35,1.02.73l.02.08.23-.14.46-.74c.11-.32.08-.6-.05-.79l-.3-.24-.46.14c-.56.17-1.02.03-1.4-.44-.29-.34-.38-.73-.27-1.15.11-.45.36-.77.73-1.03.66-.44,1.25-.47,1.75-.11l.18.23c.05-.05.11-.24.18-.57l.09-.25-.25-.38-.02.04-1.06-1.59-8.97,5.62.37-2.2,5.51-3.18c.26-.16.53-.54.8-1.17.27-.61.31-1.04.13-1.25-.24-.28-.5-.4-.77-.4-.14.67-.18,1.07-.23,1.23-.14.44-.4.77-.78,1l-.84.26.08.02c-.24.04-.51-.02-.79-.19-.27-.19-.51-.36-.62-.62-.24-.53-.22-1.12.08-1.73-.74-.11-1.24-.45-1.51-1.05-.31-.65-.14-1.25.48-1.8l.38-.24c.64-.3,1.35-.26,2.13.1.12.05.32.15.63.29l.31-.56-.07-.86c-.09-.16-.25-.49-.5-1.01l.02-.03-.42-.9-9.63,4.25.65-2.08,8.35-3.51-.52-1.12.82-1.8,1.02,2.18c.24-.56.5-.88.8-1,.39-.15.72-.23.99-.19.69.09,1.24.19,1.62.33.38.14.83.4,1.33.76l.77.96c.49,1.05.57,2.36.29,4.02-.1.5-.32,1.27-.58,2.23l-1.04,1.12c.12-.9.19-1.78.46-2.71.29-1.15.21-2.19-.24-3.19-.27-.59-.64-1.03-1.11-1.25l-.46-.24-.92-.22c-.49-.08-.79-.11-.88-.04l-.5.52.37.84v.02s.64,1.4.64,1.4c.2.42.24.88.15,1.36-.11.28-.31.71-.59,1.27.76.02,1.4.33,1.96.94l.32.36c.25.4-.02,1.31-.78,2.84l-.12.18,1.69-1.18,2.05-1.35c-.12.57-.22,1.01-.31,1.35l-.44.46-.14.09.06.55c2.12,3.54,4.56,6.81,7.5,9.73h0s.07.07.07.07c.62.68.82,1.38.64,2.13l.23-.27c.45-.5,1.07-1.16,1.86-1.93l.02,1.08-.61.95-.05.34c1.97,1.96,4.31,3.59,6.45,5.43ZM36.31,137.11c-.54-.81-.69-1.67-.32-2.68.2-.57.47-1.04.82-1.42l-.94-1.43-.4.61s.02.14.1.37c.4,1.06.15,2.37-.59,3.84l-.65.83c.06.47.02.99-.12,1.57l2.1-1.69ZM38.58,135.26l-1.03-1.13-.13.15c-.28.22-.42.43-.42.63.03.28.18.61.52.98l.14.14.92-.77ZM47.65,147.29c-.99-.35-2.13-.57-3.45-.69.56,1.19.8,2.55.73,4.06l2.72-3.37ZM136.87,145.1c-2.75,2.54-5.86,4.57-9.13,6.37l.98-.16c.77.61,1.4,1.06,1.85,1.37.81.53,1.48.92,2.04,1.15,1.43.59,2.75.53,3.94-.19.46-.39.8-1.01,1-1.87.13-.64.03-1.17-.31-1.6-.26-.34-.61-.59-1.05-.74-.49-.18-.87-.16-1.19.09l-.16.19.75.64c.63.87.56,1.83-.51,2.45-.53.3-1.04.39-1.57.21-.53-.17-.96-.52-1.3-1.03-.37-.58-.46-1.17-.28-1.8.18-.62.55-1.08,1.12-1.43.16-.13.43-.28.79-.46,1.16-.57,2.46-.35,3.91.64l1,.92c.71.9.91,1.92.6,3.03.16-.12.44-.12.91,0,.21.05.34.07.37.06l.15-.27,3.63,4.62-1,.16-.93-.26-.47-.1c-.92-.05-1.75.3-2.58.93l-1.89-.63,1.21-2.96s.08-.2.19-.5l.02-.11c-.32.65-.71,1.23-1.22,1.63-1.26.75-2.79.85-4.48.2-.94-.35-1.62-.7-2.09-1.04l-3.57-3.07-.24.14-.09-.04-.06.04-.66.76c-.14.35-.15.67-.05,1.01l.24.55c.34.6.78,1.26,1.35,1.96,1.03,1.29,1.64,2.07,1.78,2.31.59,1.06.52,2.24-.26,3.58-.36.62-.71,1.02-1.05,1.22-.33.14-.65.08-.93-.19l-.12-.13c-.08-.15,0-.35.22-.58l.55-.5c.24-.56.37-.87.38-.98.05-.3-.05-.71-.27-1.26-.14-.31-.55-.84-1.2-1.54-.7-.76-1.14-1.34-1.31-1.7-.36-.68-.53-1.44-.55-2.24l.13-1.15c-.92.61-1.89,1.14-2.94,1.49l4.52,9.57-1.27-.49c-2.1-1.72-4.12-2.21-6.16-1.44l-2.18-1.28c.71-1.41,1.28-2.55,1.74-3.41-.24.02-.65.12-1.2.35-.56.23-.95.32-1.16.3-.36-.04-.69-.27-1.01-.65l-.19-.13-.88.37,3.28,9.89.75.28c1.06.37,1.82.91,2.26,1.59l.06.35-.26.27-.4-.05c-.47-.29-1.29-.59-2.46-.92,0-.03-.13-.1-.36-.27l-.39-.17c-.34.49-.58.81-.71.95-.29.31-.64.52-1.06.62-.56.13-1.07.15-1.53.04-.57-.16-.93-.43-1.11-.88-.22-.57-.17-1.09.14-1.55.32-.47.78-.79,1.42-.93.42-.11.92-.07,1.52.08-.24-.68-.4-1.1-.45-1.27l.26-.25.43.07c-.44-.69-1.01-1.45-1.75-2.26-.28-.32-.69-.6-1.22-.85-.56-.27-1-.37-1.4-.36.4.36.65.71.75,1.07.3,1.03-.11,1.67-1.2,1.92-1.42.35-2.29-.17-2.59-1.53-.16-.72-.04-1.38.35-1.98.38-.6.91-.96,1.6-1.15,1.08-.25,2.34.29,3.87,1.6l.06.05-1.21-3.93-5.26,1.25h.03s-1.85.44-1.85.44l2.07,10.48-1.14-.75-.64-1.17c-.29-.46-.58-.77-.89-.96-.63-.32-1.1-.55-1.44-.72-.51.61-1.11.95-1.78,1.01-.65.06-1.15-.07-1.52-.38-.22-.21-.36-.34-.4-.4l-.27-.93c-.07-.64.12-1.15.52-1.54.37-.36.88-.57,1.53-.63l.47.04c-.17-.58-.47-1-.89-1.29-.34-.23-.84-.41-1.47-.51-.48-.08-.82-.19-1.04-.31l-.71-.6-.22-.43-1.4-1.29c13.65-.79,27-5.88,37.73-14.35l2.06.23ZM104.92,159.95c-1.13.36-2.3.37-3.46.45l1.06.81c.76.6,1.39,1.55,1.86,2.75l.18.82c.32.2.78.53,1.38,1l-1.02-5.83ZM115.58,168.16c-.17-.12-.44-.12-.81-.01-.48.13-.67.28-.62.46.05.21.28.23.66.09l.63-.41.14-.13ZM122.9,158.59l-1.24-.52c-.24-.11-.37-.16-.4-.17-.27.35-.59,1.03-.99,2.02,1.25.09,2.46.42,3.65.95l-1.02-2.28ZM121.22,154.84l-2.53,1.02c.91.25,1.61.5,2.11.8.36.09.83.22,1.4.37l-.98-2.19ZM139.99,155.15l-.25.88c.27-.07.85-.07,1.75-.01l-1.19-1.58-.31.71ZM92.85,159.55l1.51,1.38c-.59,0-.94,0-1.03.01l-.95.34c-.29.2-.47.46-.55.81l-.04.57c0,.7.06,1.51.21,2.42.29,1.66.43,2.63.43,2.93,0,1.21-.63,2.15-1.97,2.8-.61.3-1.12.44-1.52.41-.34-.04-.59-.22-.72-.58l-.04-.19c0-.18.17-.3.48-.4l.71-.14c.49-.32.76-.51.81-.58.18-.23.3-.63.37-1.2.03-.34-.05-1-.29-1.96-.24-1.05-.34-1.77-.33-2.18.02-.77.24-1.5.61-2.17l.67-.87-1.38-.11.02.03-1.91-.15-.71,10.58-1.56-1.65.66-6.32c.03-.3-.13-.76-.47-1.35-.34-.61-.65-.9-.94-.9-.36.02-.62.15-.77.39.45.48.76.78.86.93.27.39.38.8.35,1.25l-.28.81.07-.06c-.12.22-.33.39-.63.52l-.85.13c-.58-.05-1.04-.35-1.38-.91-.52.55-1.13.91-1.76.73-.7-.17-1.09-.68-1.15-1.52v-.43c.15-.7.59-1.24,1.34-1.64.09-.06.3-.16.58-.31l-.26-.59-.73-.5c-.17-.03-.54-.11-1.1-.24l-.03-.03c-2.76-.7-5.56-1.26-8.3-2.03l-.91,2.8c1.26-.74,2.49-1.43,3.64-1.73l1.23,1.81c-.84.58-1.51,1.22-1.99,1.93,1.25-.82,2.44-1.33,3.58-1.52l1.49,1.66c-1.28,1.09-2.09,2.13-2.36,3.11-.17.64-.24.89-.23.78-.17.78-.19,1.92.03,3.45l-1.33-1.33-.06-1.94c.03-.86.13-1.48.29-1.89l.55-1.3c-.39.2-.93.55-1.65,1.03-.17.15-.66.72-1.51,1.71-.41-1.26-.6-2-.62-2.19l-.02.12c-.1-.38-.1-.82-.02-1.29l.64-1.42c-.41.23-1,.7-1.8,1.39-.2.17-.53.53-.98,1.11l-.98-2.06,1.68-4.77-.28-.11c-2.21-.19-3.91.65-5.02,2.55-.36.62-.61,1.1-.75,1.42-.44,1.05-.32,2.07.37,3.05-.07-.26-.09-.53.02-.78.2-.5.6-.76,1.23-.82l.73.08.59.55c.37.43.47.94.28,1.52-.18.5-.54.85-1.06,1.04-.51.16-1.05.13-1.61-.09-1.19-.49-1.9-1.42-2.07-2.78-.14-1.1.05-2.25.58-3.43.65-1.5,1.82-2.7,3.41-3.66-2.2-.96-4.51-1.64-6.48-3.02l-1.29,2.38-.09.3.05.31.07.08c.06.04.45-.09,1.14-.38.7-.28,1.16-.37,1.39-.23.45.23.7.76.74,1.73.04.83-.06,1.51-.3,2.05-.76,1.65-1.9,2.53-3.42,2.61-.79-.04-1.57-.35-2.38-.9-.81-.58-1.36-1.32-1.63-2.2-.16-.63-.22-1.5-.14-2.63,0-.19.1-.72.29-1.59.12-.58.67-1.87,1.65-3.84l-.51-.31-.34-1.96,6.65,3.95.56.08.17.15c.11-.16.04-.39-.17-.67l-.52-.51-1.6-.83-.58-.35c-.65-.39-1.12-.92-1.4-1.53-.35-.76-.3-1.45.12-2.1l.59-.63c.3-.23.54-.3.73-.2.03.02.19.27.5.76-.48.07-.78.19-.87.34-.13.21-.15.45-.05.7l.46.56.04.02.24.13c.17.09.55.29,1.13.58l1.25.62c.68.47,1.09,1.07,1.37,1.64.3.65.28,1.37-.1,2.14,5.06,2.21,10.17,4.19,15.6,5.17l.02.02,1.72.42c.46.12.85.36,1.17.73.18.29.41.63.71,1.14.46-.63,1.1-1.06,1.93-1.24.26-.06.43-.09.5-.09.46.04,1.04.83,1.83,2.39l.07.19.03-2.05.12-2.46c.39.45.69.81.89,1.07l.14.64c-.03.14-.03.21-.03.16.05.14.23.23.47.3l4.44.33ZM57.01,154.99v.03l-.04.08.06-.08-.02-.03ZM56.43,156.21c-.12-.55-.06-1.03.19-1.45l1.65-2.94-2.61-1.55.54.94c-.35.64-.65,1.41-.86,2.3-.23.95-.29,1.76-.18,2.45l.12.84.06.32c.19.63.64,1.15,1.34,1.56.94.54,1.76.65,2.5.16.49-.32.81-.63.95-.93l.12-.74c-.62.39-1.26.5-1.95.5l-1.04-.27c-.42-.25-.71-.65-.83-1.19ZM63.76,164.48c.23.1.36.14.38.13l-.08-.11v-.03h-.3ZM157.94,116.02l-.85,1.79,10.16,4.12-1.5.44-.29-.13c-1.03-.45-2.5-.58-4.37-.53-.41,0-.88.14-1.41.39-.53.24-.9.53-1.13.86.52-.09.95-.06,1.29.11.96.44,1.21,1.18.74,2.2-.61,1.33-1.54,1.66-2.76,1.01-.65-.35-1.08-.88-1.31-1.56-.23-.7-.2-1.36.11-2,.46-1.01,1.64-1.64,3.58-1.98h.08l-3.77-1.64c-1.57,3.27-2.87,6.7-5.11,9.61v.57l.05.09c.13.11.41-.01.86-.35.39-.28.65-.52.77-.71.15-.21.28-.55.41-1.01l.26-.93c.73-.14,1.51-.37,2.41-.65.5,1.42,1.12,2.44,2.12,3.1l1.04.69c.6.34,1.57.59,2.83.67.21.1.26.27.12.45-.09.14-.27.32-.54.54-.28.23-.47.31-.58.29l-2.07-.61c-.75-.22-1.38-.49-1.9-.81-.74-.41-1.41-1.02-2.06-1.8-.86,1.21-1.76,1.96-2.69,2.25-.08.01-.49.04-1.2.09-.05.22.07.6.33,1.16.26.56.5.9.68,1.04.23.17.45.12.62-.15.09-.15.21-.71.33-1.64l.1-.64.3-.18-.03.03c.19-.12.47-.19.85-.22.99-.13,1.83.01,2.49.41.71.42,1.16,1.05,1.32,1.86.14.82-.02,1.6-.5,2.34-.73,1.1-1.86,1.73-3.33,1.82-1.36.07-2.73-.35-4.08-1.24l-1.59-1.17c-.2-.17-.27-.31-.2-.41l.16-.1.7-.28c.89.73,1.88,1.25,2.99,1.49.83.19,1.67.11,2.53-.29.39-.18.68-.43.88-.79l.45-1.21c.11-.59.03-.98-.26-1.16l-.39-.1-.26.04-.05.13c-.13.72-.33,1.26-.58,1.66l-.85.78c-1.04.46-1.99.35-2.85-.28-.45-.33-.85-.97-1.21-1.93l-.1-.24c-.83,1.13-1.46,2.47-2.46,3.48l8.43,6.71-1.5-.04c-.67-.2-1.6-.46-2.77-.75-.16-.02-.57-.04-1.22-.04.23,1.11-.02,2.07-.72,2.85-.71.77-1.66,1.22-2.85,1.29-.36.02-.99-.04-1.85-.22-.55-.11-1.3-.38-2.34-.95-.96-.51-1.68-.95-2.18-1.34l-2.09-.23c7.57-7.08,14.03-15.57,17.77-25.33l2.04-.72ZM146.25,135.88c-1.95,2.09-3.78,4.32-5.82,6.32l.85-.27c.85.43,1.42.71,1.68.84.76.34,1.34.48,1.73.46.84-.02,1.42-.09,1.71-.18.56-.15,1.04-.5,1.43-.99.63-.79.6-1.48-.1-2.09l-.75-.45c-.35-.15-.63-.2-.84-.12l-.14.09.1.42c.12.5.02.9-.3,1.27-.29.34-.68.53-1.15.58s-.85-.09-1.17-.39c-.51-.49-.62-1.06-.41-1.69l.42-.69c.74-.82,1.73-1.12,3-1.01,1.09.13,1.97.49,2.6,1.12l1.32.22-4.16-3.44Z"/>
      <path class="cls-5" d="M75.34,116.64l-1.26.46,3.33,9.19-1.26-.98-3-7.85-1.44.54,3.89,9.37-1.31-1.07-2.82-6.46c-.12-.25-.2-.4-.24-.44l-.67-.6c-.27-.13-.52-.16-.74-.07l-.21.1-.33.21.49.74c.26.58.39,1.1.38,1.59l-.12.63.22.07c.49.26.92.76,1.31,1.5.53.97.5,2.09.02,3.35l.04.02c.85.27,1.68.67,2.47,1.2l.86.64.79,1.45c-1.84-1.53-3.55-2-5.28-2h-.69s-2.24-2.27-2.24-2.27c.99.34,1.75.35,2.33.04.36-.19.59-.46.69-.8.16-.52.16-1.01,0-1.42l-.47-.68-.24.03-.17.2c.21.45.29.91.24,1.38-.05.48-.22.79-.5.94-.22.12-.46.12-.74,0s-.5-.35-.67-.71c-.15-.3-.24-.71-.26-1.25l.2-.75c.06-.05.2-.24.43-.57l-1.05-.69c.25,1.34.23,2.11-.13,2.3-.21.11-.53.07-.93-.13-.54-.23-.86-.49-.97-.75-.11-.47-.13-.73-.04-.77.02,0,.15.03.37.14.23.08.36.13.39.11.12-.07.16-.32.12-.73l-.21-.9-.05-.06-2.02,1.12-1.59-.72,6.67-3.7h0s.09-.05.09-.05c.59-.29,1.17-.16,1.66.28l-.14-.28c-.28-.58-.63-1.32-1.04-2.27l.81.39.57.88.22.19,1.44-.55c-.44-.29-.72-.57-.82-.82l-.2-.92c.05-.61.11-1.08.25-1.4.11-.33.33-.7.64-1.11l.86-.61c.91-.29,1.97-.36,3.26.28.38.18.94.58,1.65,1.16l.67,1.27-1.99-1.24c-.86-.55-1.67-.57-2.48-.29-.5.18-.85.48-1.05.87l-.2.39-.18.79c-.06.44-.07.69,0,.79l.4.53.63-.24,1.37,1.01ZM68.95,120.05c-.16-.32-.34-.5-.57-.56l-1.28.71.32.35c.52.46.94.58,1.28.31.2-.11.31-.29.31-.54l-.06-.27ZM110.72,118.4l-.19.76c-.38,1.04-.96,1.43-1.72,1.14l-.43-.17-.19-.02s-.04.22-.07.56l-.13.74c-.26.81-.78,1.52-1.5,2.15-.75.69-1.36,1.02-1.82.9-.22-.05-.37-.32-.5-.83l-.14-1.32,1.43-5.8c-.46-.17-.62-.6-.45-1.32.18-.77.53-1.12,1-.99.23.04.43.2.57.49.13.27.17.56.1.91l-.18.95-.43,1.61c.47-.35.89-.47,1.21-.39.36.09.64.47.79,1.34l.02-.02c.2-.41.46-.64.76-.67l.73.15c.26.11.45.11.54.03l.38-.52.22.32ZM107.11,120.22l-.07-.5-.39-.31c-.3-.06-.64.02-.98.24l-.78,2.9-.05.31c.35.06.87-.37,1.57-1.25.29-.38.49-.77.61-1.19l.09-.2ZM89.3,113.98c-2.49.15-4.97.27-7.38.94h0l-.22.05.67.23c.39.77.7,1.36.94,1.81.39.73.72,1.3.99,1.69.72,1.03,1.42,1.44,2.19,1.43.35-.03.67-.3,1-.84.23-.39.33-.83.29-1.34l-.35-1.14c-.22-.4-.46-.6-.71-.59l-.16.06.25.87c.12,1.05-.19,1.59-.91,1.63-.36.03-.66-.12-.92-.45-.28-.33-.44-.78-.53-1.34-.11-.64-.03-1.2.23-1.67.27-.48.63-.69,1.09-.72l.63.09c.91.22,1.59,1.08,2.04,2.63l.24,1.24c.1,1.22-.17,2.19-.75,2.87-.4.45-.8.69-1.21.71-.78.01-1.53-.46-2.35-1.62-.45-.65-.8-1.2-1.02-1.65l-1.75-3.87-.89.2,2.11,9.42c-.3-.23-.67-.58-1.14-1.1l-1.06-4.75-.4-.75-.48-.62-1.17,3.48-1.29-.24.31-1.3-.04-.37c-.14-.47-.29-.66-.45-.6l-.32.32-.33.3c-.15.06-.31.03-.51-.12l-.39-.57c-.11-.29-.11-.71-.03-1.28l.32-1.14c.26-.57.69-1.06,1.33-1.19.52-.12,1.06-.03,1.63.33.52.32.97.79,1.36,1.4l-.23-.65-.88-3.34.82.55.11.14c.08.29.16.48.27.58l.19.07h.08c2.51-.63,5.05-1.08,7.64-1.14l1.14,1.35ZM78.65,116.33c-.32-.23-.61-.34-.84-.28-.54.1-.85.47-.92,1.06.41-.05.79.3,1.12,1.01l.64-1.79ZM101.95,114.84c1.16,2.48,1.45,4.41,1.15,5.84-.3,1.3-.96,2.28-1.95,2.93-.44.28-.81.39-1.1.31-.15-.03-.35-.19-.56-.47-.3-.31-.41-.74-.33-1.31.06-.43.21-.8.46-1.17.22-.31.48-.49.77-.58h.41c.48.12.82.4,1.01.83l.43-.93c.04-.28,0-.65-.15-1.13-.34-1.07-.78-2.17-1.34-3.29-.36-.68-.51-1.22-.43-1.76.08-.58.32-.97.72-1.24l.45-.1c.26.07.44.26.55.53l.07,1-.16.54ZM94.73,115.53c.17.27.24.59.23.95l-.3.91c-.17.23-.38.34-.62.32-.24-.02-.43-.15-.59-.41l-.24-.94.27-.91c.16-.24.39-.37.63-.35.24.02.45.16.62.43ZM94.58,119.55l.2.96-.26.91c-.17.23-.36.34-.58.33-.23-.03-.4-.17-.54-.42l-.22-.93.25-.93c.15-.24.35-.36.58-.35.22.01.4.17.57.43ZM120.66,126.49c-.38.57-.9,1.16-1.55,1.8-.52.46-1.07.77-1.61.93-.53.14-.97.12-1.32-.11-.59-.37-.78-1.37-.65-3.04l.47-2.91.31-1.04c-.8-.05-1.45-.01-1.99.28-.86.44-1.43,1.02-1.75,1.71-.3.69-.38,1.29-.26,1.79.08.35.29.73.63,1.23-.63.09-1.17.13-1.57,0-.64-.24-1.11-.73-1.45-1.47-.46-1.05-.45-2.35.11-3.86.64-1.76,1.77-3.08,3.47-3.91.76-.38,1.41-.53,1.9-.44l1.37,1.21c-.4-.06-.67-.05-.81-.01-.32.1-.56.32-.72.68l-.1.48.5.38.79,1.53.55-1.51.54.95c-.71,1.63-1,3.13-.95,4.51.02.79.22,1.26.61,1.49.36.21.81.21,1.37-.05.57-.22,1.04-.63,1.38-1.2.49-.83.75-1.46.77-1.88l-.22-.73-.27.54c-.28.43-.61.73-1,.94-.4.18-.72.2-1.02.03-.29-.16-.44-.49-.44-.99,0-.5.14-.99.41-1.48l.8-.98c.34-.27.66-.43.98-.45.21-.03.5.05.9.2.45.19.76.64.89,1.35.11.62.07,1.27-.12,1.95-.16.71-.49,1.4-.95,2.08ZM114.24,120.92c-.09-.11-.15-.36-.19-.77-.02-.15.03-.45.13-.92-.92.29-1.71.86-2.35,1.74-.44.58-.75,1.12-.93,1.58-.23.57-.3,1.17-.2,1.78.07.53.24.96.52,1.29l.06.04c-.02-.63.12-1.3.42-1.99.26-.65.64-1.23,1.09-1.73.44-.48.92-.83,1.45-1.02Z"/>
      <path class="cls-2" d="M92.71,146.18c-30.09,0-54.56-24.28-54.56-54.13s24.47-54.18,54.56-54.18,54.54,24.31,54.54,54.18-24.47,54.13-54.54,54.13ZM151.05,92.05c0-31.98-26.18-57.99-58.34-57.99s-58.36,26.01-58.36,57.99,26.18,57.94,58.36,57.94,58.34-26,58.34-57.94Z"/>
    </g>
    <g>
      <path class="cls-1" d="M210.31,25.14c1.63.35,2.85.9,3.66,1.67,1.12,1.06,1.68,2.37,1.68,3.9,0,1.17-.37,2.29-1.11,3.36-.74,1.07-1.76,1.85-3.05,2.34-1.29.49-3.26.74-5.91.74h-11.11v-.64h.89c.98,0,1.69-.31,2.12-.94.27-.4.4-1.27.4-2.59v-15.2c0-1.46-.17-2.38-.5-2.76-.45-.51-1.12-.76-2.01-.76h-.89v-.64h10.17c1.9,0,3.42.14,4.56.42,1.74.42,3.06,1.15,3.97,2.21s1.37,2.28,1.37,3.65c0,1.18-.36,2.24-1.08,3.17s-1.76,1.62-3.16,2.07ZM201.22,24.21c.43.08.92.14,1.47.18s1.15.06,1.81.06c1.69,0,2.96-.18,3.81-.55.85-.36,1.5-.92,1.95-1.67s.68-1.57.68-2.46c0-1.38-.56-2.55-1.68-3.52s-2.76-1.46-4.91-1.46c-1.16,0-2.2.13-3.12.38v9.04h-.01ZM201.22,35.45c1.34.31,2.67.47,3.97.47,2.09,0,3.69-.47,4.79-1.41s1.65-2.11,1.65-3.5c0-.91-.25-1.79-.75-2.64-.5-.84-1.31-1.51-2.43-2s-2.51-.73-4.16-.73c-.72,0-1.33.01-1.84.03s-.92.06-1.23.12v9.66Z"/>
      <path class="cls-1" d="M230.6,13.08c3.05,0,5.7,1.16,7.94,3.48s3.36,5.21,3.36,8.69-1.13,6.54-3.38,8.9c-2.26,2.36-4.99,3.54-8.19,3.54s-5.96-1.15-8.17-3.45c-2.2-2.3-3.31-5.28-3.31-8.94s1.27-6.79,3.82-9.15c2.2-2.04,4.85-3.07,7.93-3.07ZM230.27,14.35c-2.11,0-3.79.78-5.07,2.34-1.59,1.94-2.38,4.79-2.38,8.54s.82,6.8,2.46,8.87c1.26,1.57,2.93,2.36,5,2.36,2.21,0,4.03-.86,5.48-2.59,1.44-1.72,2.16-4.44,2.16-8.16,0-4.03-.79-7.03-2.38-9.01-1.27-1.56-3.03-2.35-5.27-2.35Z"/>
      <path class="cls-1" d="M265.08,13.08l.61,7.43h-.61c-.61-1.85-1.41-3.25-2.38-4.18-1.4-1.35-3.2-2.03-5.4-2.03-3,0-5.28,1.19-6.84,3.56-1.31,2-1.96,4.38-1.96,7.15,0,2.24.43,4.29,1.3,6.14s2,3.21,3.41,4.07c1.41.86,2.85,1.29,4.33,1.29.87,0,1.71-.11,2.52-.33s1.59-.54,2.34-.97v-6.8c0-1.18-.09-1.95-.27-2.32s-.46-.64-.83-.83-1.04-.29-1.99-.29v-.66h9.11v.66h-.43c-.9,0-1.52.3-1.86.9-.23.43-.35,1.27-.35,2.53v7.2c-1.33.72-2.64,1.24-3.94,1.58s-2.74.5-4.32.5c-4.55,0-8-1.46-10.36-4.37-1.77-2.19-2.66-4.71-2.66-7.57,0-2.07.5-4.05,1.49-5.95,1.18-2.26,2.8-3.99,4.86-5.21,1.72-1.01,3.76-1.51,6.11-1.51.86,0,1.63.07,2.33.21.7.14,1.69.45,2.98.92.65.24,1.08.36,1.3.36s.41-.1.56-.3c.16-.2.25-.6.29-1.19h.66Z"/>
      <path class="cls-1" d="M292.95,37.15h-6.28l-7.97-11c-.59.02-1.07.03-1.44.03-.15,0-.31,0-.49-.01-.17-.01-.35-.01-.54-.03v6.84c0,1.48.16,2.4.49,2.76.44.51,1.1.76,1.98.76h.92v.64h-10.08v-.64h.88c1,0,1.71-.32,2.13-.97.24-.36.36-1.21.36-2.55v-15.2c0-1.48-.16-2.4-.49-2.76-.45-.51-1.12-.76-2.01-.76h-.88v-.64h8.57c2.5,0,4.34.18,5.53.55,1.19.36,2.19,1.04,3.02,2.01.83.98,1.24,2.14,1.24,3.5,0,1.45-.47,2.7-1.41,3.77s-2.4,1.82-4.38,2.26l4.86,6.75c1.11,1.55,2.07,2.58,2.86,3.09s1.84.83,3.12.97v.63h.01ZM276.24,25.06c.22,0,.41,0,.57.01s.3.01.4.01c2.24,0,3.94-.49,5.08-1.46,1.14-.97,1.71-2.21,1.71-3.71s-.46-2.66-1.38-3.58c-.92-.92-2.14-1.38-3.65-1.38-.67,0-1.58.11-2.72.33v9.78h0Z"/>
      <path class="cls-1" d="M308.9,29.27h-9.11l-1.6,3.71c-.39.91-.59,1.6-.59,2.05,0,.36.17.67.51.95.34.27,1.08.45,2.21.53v.64h-7.41v-.64c.98-.17,1.62-.4,1.91-.68.59-.56,1.24-1.68,1.96-3.38l8.28-19.37h.61l8.19,19.58c.66,1.57,1.26,2.59,1.8,3.06s1.29.73,2.25.79v.64h-9.28v-.64c.94-.05,1.57-.2,1.9-.47s.5-.59.5-.97c0-.51-.23-1.31-.69-2.41l-1.44-3.39ZM308.41,27.99l-3.99-9.51-4.1,9.51h8.09Z"/>
      <path class="cls-1" d="M345.67,13.62l-15.46,22.11h9.65c1.48,0,2.62-.32,3.41-.97s1.5-1.96,2.11-3.94l.57.1-1.11,6.23h-19.16v-.64l15.1-21.48h-7.53c-1.25,0-2.16.14-2.72.41s-.99.67-1.28,1.18-.56,1.48-.81,2.89h-.66l.49-5.88h17.4Z"/>
      <path class="cls-1" d="M357.9,36.51v.64h-10.08v-.64h.83c.97,0,1.68-.28,2.12-.85.28-.37.42-1.26.42-2.67v-15.2c0-1.19-.08-1.98-.23-2.36-.12-.29-.35-.54-.71-.75-.51-.28-1.04-.42-1.6-.42h-.83v-.64h10.08v.64h-.85c-.96,0-1.66.28-2.1.85-.29.37-.43,1.26-.43,2.67v15.2c0,1.19.07,1.98.23,2.36.12.29.36.54.73.75.5.28,1.02.42,1.58.42h.84Z"/>
      <path class="cls-1" d="M379.14,30.64l.57.12-2.01,6.39h-18.22v-.64h.88c1,0,1.71-.32,2.13-.97.24-.37.36-1.23.36-2.57v-15.18c0-1.47-.16-2.39-.49-2.76-.45-.51-1.12-.76-2.01-.76h-.88v-.64h10.65v.64c-1.25-.01-2.12.1-2.63.35-.5.24-.85.55-1.03.92-.19.37-.28,1.26-.28,2.65v14.79c0,.96.09,1.62.28,1.98.14.24.35.42.64.54s1.19.17,2.71.17h1.72c1.8,0,3.07-.13,3.8-.4.73-.27,1.39-.74,2-1.41.61-.69,1.21-1.76,1.81-3.22Z"/>
      <path class="cls-1" d="M400.85,30.64l.57.12-2.01,6.39h-18.22v-.64h.88c1,0,1.71-.32,2.13-.97.24-.37.36-1.23.36-2.57v-15.18c0-1.47-.16-2.39-.49-2.76-.45-.51-1.12-.76-2.01-.76h-.88v-.64h10.65v.64c-1.25-.01-2.12.1-2.63.35-.5.24-.85.55-1.03.92-.19.37-.28,1.26-.28,2.65v14.79c0,.96.09,1.62.28,1.98.14.24.35.42.64.54.29.12,1.19.17,2.71.17h1.72c1.8,0,3.07-.13,3.8-.4s1.39-.74,2-1.41c.61-.69,1.21-1.76,1.81-3.22Z"/>
      <path class="cls-1" d="M418.45,29.27h-9.11l-1.6,3.71c-.39.91-.59,1.6-.59,2.05,0,.36.17.67.51.95.34.27,1.08.45,2.21.53v.64h-7.41v-.64c.98-.17,1.62-.4,1.91-.68.59-.56,1.24-1.68,1.96-3.38l8.28-19.37h.61l8.19,19.58c.66,1.57,1.26,2.59,1.8,3.06s1.29.73,2.25.79v.64h-9.28v-.64c.94-.05,1.57-.2,1.9-.47s.5-.59.5-.97c0-.51-.23-1.31-.69-2.41l-1.44-3.39ZM417.96,27.99l-3.99-9.51-4.1,9.51h8.09Z"/>
      <path class="cls-1" d="M451.07,13.08v8.14h-.64c-.21-1.56-.58-2.81-1.12-3.73-.54-.93-1.3-1.66-2.3-2.2s-2.02-.82-3.09-.82c-1.2,0-2.2.37-2.99,1.1s-1.18,1.57-1.18,2.51c0,.72.25,1.37.75,1.96.72.87,2.42,2.02,5.12,3.47,2.2,1.18,3.7,2.09,4.5,2.72s1.42,1.37,1.86,2.23c.43.86.65,1.75.65,2.69,0,1.78-.69,3.32-2.07,4.61s-3.16,1.94-5.34,1.94c-.68,0-1.33-.05-1.93-.16-.36-.06-1.1-.27-2.23-.63-1.13-.36-1.84-.55-2.14-.55s-.52.09-.69.26-.29.53-.37,1.08h-.64v-8.07h.64c.3,1.69.71,2.95,1.21,3.79s1.29,1.54,2.33,2.09c1.05.56,2.2.83,3.44.83,1.45,0,2.59-.38,3.43-1.15s1.26-1.67,1.26-2.71c0-.58-.16-1.16-.48-1.75s-.81-1.14-1.48-1.65c-.45-.35-1.68-1.08-3.7-2.21-2.01-1.13-3.44-2.03-4.29-2.7s-1.5-1.41-1.93-2.22c-.44-.81-.66-1.7-.66-2.67,0-1.69.65-3.14,1.94-4.36s2.94-1.83,4.95-1.83c1.25,0,2.57.31,3.97.92.65.29,1.1.43,1.37.43.3,0,.55-.09.74-.27s.34-.54.46-1.08h.65Z"/>
      <path class="cls-1" d="M475.94,13.08l.54,8h-.54c-.72-2.4-1.74-4.12-3.07-5.17-1.33-1.05-2.93-1.58-4.79-1.58-1.56,0-2.97.4-4.23,1.19s-2.25,2.06-2.98,3.79-1.08,3.89-1.08,6.47c0,2.13.34,3.97,1.02,5.54.68,1.56,1.71,2.76,3.08,3.59s2.94,1.25,4.69,1.25c1.53,0,2.88-.33,4.04-.98,1.17-.65,2.45-1.95,3.85-3.9l.54.35c-1.18,2.09-2.56,3.63-4.13,4.6s-3.44,1.46-5.61,1.46c-3.9,0-6.92-1.45-9.06-4.34-1.6-2.15-2.39-4.69-2.39-7.6,0-2.35.53-4.51,1.58-6.47,1.05-1.97,2.5-3.49,4.35-4.57,1.84-1.08,3.86-1.62,6.05-1.62,1.7,0,3.38.42,5.03,1.25.49.25.83.38,1.04.38.31,0,.58-.11.82-.33.3-.31.51-.75.64-1.3h.61Z"/>
      <path class="cls-1" d="M485.56,24.54h10.93v-6.73c0-1.2-.08-2-.23-2.38-.12-.29-.36-.54-.73-.75-.5-.28-1.02-.42-1.58-.42h-.83v-.64h10.07v.64h-.83c-.56,0-1.08.13-1.58.4-.37.19-.62.47-.75.84-.13.38-.2,1.14-.2,2.3v15.18c0,1.19.08,1.98.23,2.36.12.29.35.54.71.75.51.28,1.04.42,1.6.42h.83v.64h-10.07v-.64h.83c.96,0,1.66-.28,2.1-.85.29-.37.43-1.26.43-2.67v-7.17h-10.93v7.17c0,1.19.08,1.98.23,2.36.12.29.36.54.73.75.5.28,1.02.42,1.58.42h.85v.64h-10.08v-.64h.83c.97,0,1.68-.28,2.12-.85.28-.37.42-1.26.42-2.67v-15.18c0-1.2-.08-2-.23-2.38-.12-.29-.35-.54-.71-.75-.51-.28-1.04-.42-1.6-.42h-.83v-.64h10.08v.64h-.85c-.56,0-1.08.13-1.58.4-.36.19-.61.47-.75.84-.14.38-.21,1.14-.21,2.3v6.73h0Z"/>
      <path class="cls-1" d="M516.91,13.08c3.05,0,5.7,1.16,7.94,3.48s3.36,5.21,3.36,8.69-1.13,6.54-3.38,8.9c-2.26,2.36-4.99,3.54-8.19,3.54s-5.96-1.15-8.17-3.45c-2.2-2.3-3.31-5.28-3.31-8.94s1.27-6.79,3.82-9.15c2.21-2.04,4.86-3.07,7.93-3.07ZM516.58,14.35c-2.11,0-3.79.78-5.07,2.34-1.58,1.94-2.38,4.79-2.38,8.54s.82,6.8,2.46,8.87c1.26,1.57,2.93,2.36,5,2.36,2.21,0,4.04-.86,5.48-2.59,1.44-1.72,2.16-4.44,2.16-8.16,0-4.03-.79-7.03-2.38-9.01-1.26-1.56-3.02-2.35-5.27-2.35Z"/>
      <path class="cls-1" d="M542.58,13.08c3.05,0,5.7,1.16,7.94,3.48s3.36,5.21,3.36,8.69-1.13,6.54-3.38,8.9c-2.26,2.36-4.99,3.54-8.19,3.54s-5.96-1.15-8.17-3.45c-2.2-2.3-3.31-5.28-3.31-8.94s1.27-6.79,3.82-9.15c2.21-2.04,4.85-3.07,7.93-3.07ZM542.25,14.35c-2.11,0-3.79.78-5.07,2.34-1.58,1.94-2.38,4.79-2.38,8.54s.82,6.8,2.46,8.87c1.26,1.57,2.93,2.36,5,2.36,2.21,0,4.04-.86,5.48-2.59,1.44-1.72,2.16-4.44,2.16-8.16,0-4.03-.79-7.03-2.38-9.01-1.27-1.56-3.03-2.35-5.27-2.35Z"/>
      <path class="cls-1" d="M575.62,30.64l.57.12-2.01,6.39h-18.22v-.64h.88c1,0,1.71-.32,2.13-.97.24-.37.36-1.23.36-2.57v-15.18c0-1.47-.16-2.39-.49-2.76-.45-.51-1.12-.76-2.01-.76h-.88v-.64h10.65v.64c-1.25-.01-2.12.1-2.63.35-.5.24-.85.55-1.03.92-.19.37-.28,1.26-.28,2.65v14.79c0,.96.09,1.62.28,1.98.14.24.35.42.64.54.29.12,1.19.17,2.71.17h1.72c1.8,0,3.07-.13,3.8-.4s1.39-.74,2-1.41c.61-.69,1.21-1.76,1.81-3.22Z"/>
    </g>
    <g>
      <path class="cls-10" d="M231.71,105.77h-21.62l-2.57,5.96c-.84,1.99-1.26,3.63-1.26,4.92,0,1.72.69,2.98,2.08,3.79.81.48,2.81.84,6,1.08v1.67h-20.37v-1.67c2.2-.33,4-1.24,5.42-2.73,1.41-1.49,3.16-4.57,5.24-9.23l21.9-48.85h.86l22.08,50.2c2.11,4.76,3.84,7.75,5.19,8.98,1.02.93,2.47,1.47,4.33,1.62v1.67h-29.62v-1.67h1.22c2.38,0,4.05-.33,5.01-.99.66-.48.99-1.17.99-2.08,0-.54-.09-1.1-.27-1.67-.06-.27-.51-1.4-1.35-3.39l-3.26-7.61ZM230.18,102.43l-9.12-21.08-9.39,21.08h18.51Z"/>
      <path class="cls-10" d="M318.39,101.71l-2.3,21.49h-54.36v-1.67h2.04c1.78,0,3.21-.32,4.29-.95.78-.42,1.38-1.14,1.81-2.17.33-.72.5-2.62.5-5.69v-40.27c0-3.13-.17-5.09-.5-5.87s-1-1.47-2.01-2.05c-1.01-.59-2.37-.88-4.09-.88h-2.03v-1.67h32.64v1.67h-2.66c-1.78,0-3.21.32-4.29.95-.78.42-1.4,1.14-1.85,2.17-.33.72-.5,2.62-.5,5.69v39.01c0,3.13.18,5.12.54,5.98.36.86,1.07,1.5,2.12,1.92.75.27,2.57.41,5.46.41h5.1c3.25,0,5.96-.57,8.13-1.72,2.17-1.14,4.04-2.95,5.62-5.42s3.08-6.11,4.49-10.93h1.85Z"/>
      <path class="cls-10" d="M323.85,61.98h31.6v1.67h-1.58c-2.38,0-4.01.25-4.9.74-.89.5-1.52,1.18-1.9,2.05s-.56,3.06-.56,6.55v29.98c0,5.48.41,9.1,1.24,10.88s2.19,3.25,4.09,4.42,4.29,1.76,7.18,1.76c3.31,0,6.13-.75,8.46-2.23s4.08-3.54,5.24-6.16,1.74-7.18,1.74-13.68v-24.97c0-2.74-.29-4.69-.86-5.87-.57-1.17-1.29-1.99-2.17-2.44-1.35-.69-3.27-1.04-5.73-1.04v-1.67h21.17v1.67h-1.26c-1.71,0-3.14.35-4.29,1.04-1.14.69-1.97,1.73-2.48,3.12-.39.96-.59,2.69-.59,5.19v23.25c0,7.19-.47,12.39-1.42,15.58-.95,3.19-3.26,6.12-6.93,8.8-3.67,2.68-8.68,4.02-15.03,4.02-5.3,0-9.39-.71-12.28-2.12-3.94-1.93-6.73-4.39-8.35-7.4-1.63-3.01-2.44-7.06-2.44-12.14v-29.98c0-3.52-.2-5.71-.59-6.57-.39-.86-1.07-1.54-2.03-2.05-.96-.51-2.74-.75-5.33-.72v-1.68h0Z"/>
      <path class="cls-10" d="M432.52,102.34l16.61-40.36h24.92v1.67h-1.99c-1.81,0-3.25.32-4.33.95-.75.42-1.35,1.13-1.81,2.12-.33.72-.5,2.6-.5,5.64v40.36c0,3.13.17,5.09.5,5.87s1.01,1.47,2.03,2.05c1.02.59,2.39.88,4.11.88h1.99v1.67h-31.96v-1.67h1.99c1.81,0,3.25-.32,4.33-.95.75-.42,1.35-1.14,1.81-2.17.33-.72.5-2.62.5-5.69v-45.37l-23.48,55.85h-1.08l-23.84-55.44v43.11c0,3.01.08,4.86.23,5.55.39,1.51,1.24,2.73,2.55,3.68,1.31.95,3.36,1.42,6.16,1.42v1.67h-20.95v-1.67h.63c1.35.03,2.62-.19,3.79-.65,1.17-.47,2.06-1.09,2.66-1.87s1.07-1.88,1.4-3.3c.06-.33.09-1.87.09-4.6v-38.73c0-3.1-.17-5.03-.5-5.8s-1.01-1.44-2.03-2.03-2.39-.88-4.11-.88h-1.94v-1.67h25.01l17.21,40.36Z"/>
      <path class="cls-10" d="M498.75,61.98l30.2,37.97v-26.32c0-3.67-.53-6.15-1.58-7.45-1.44-1.75-3.87-2.59-7.27-2.53v-1.67h20.23v1.67c-2.59.33-4.33.76-5.21,1.29-.89.53-1.58,1.38-2.08,2.57s-.75,3.23-.75,6.12v50.97h-1.54l-41.4-50.97v38.92c0,3.52.8,5.9,2.42,7.13,1.61,1.23,3.45,1.85,5.53,1.85h1.44v1.67h-21.71v-1.67c3.37-.03,5.72-.72,7.04-2.08s1.99-3.66,1.99-6.91v-43.2l-1.31-1.62c-1.29-1.63-2.44-2.69-3.43-3.21-.99-.51-2.42-.8-4.29-.86v-1.67h21.72Z"/>
      <path class="cls-10" d="M576.35,121.53v1.67h-32.01v-1.67h2.03c1.78,0,3.21-.32,4.29-.95.78-.42,1.38-1.14,1.81-2.17.33-.72.5-2.62.5-5.69v-40.27c0-3.13-.17-5.09-.5-5.87s-1-1.47-2.01-2.05c-1.01-.59-2.37-.88-4.08-.88h-2.03v-1.67h32.01v1.67h-2.03c-1.78,0-3.21.32-4.29.95-.78.42-1.4,1.14-1.85,2.17-.33.72-.5,2.62-.5,5.69v40.27c0,3.13.17,5.09.52,5.87.35.78,1.02,1.47,2.03,2.05,1.01.59,2.37.88,4.09.88h2.02Z"/>
    </g>
    <g>
      <path class="cls-1" d="M207.72,165.17h-8.14l-.97,2.61c-.32.87-.48,1.59-.48,2.16,0,.75.26,1.31.78,1.66.31.21,1.06.37,2.26.48v.73h-7.66v-.73c.83-.15,1.51-.54,2.04-1.2.53-.65,1.19-2,1.97-4.05l8.24-21.42h.32l8.31,22.02c.79,2.09,1.44,3.4,1.95,3.94.38.41.93.65,1.63.71v.73h-11.15v-.73h.46c.9,0,1.52-.15,1.89-.44.25-.21.37-.51.37-.91,0-.24-.03-.48-.1-.73-.02-.12-.19-.61-.51-1.49l-1.21-3.34ZM207.15,163.71l-3.43-9.25-3.53,9.25h6.96Z"/>
      <path class="cls-1" d="M248.98,145.35l.19,8.95h-.7c-.33-2.24-1.14-4.05-2.42-5.42-1.29-1.37-2.68-2.05-4.17-2.05-1.16,0-2.07.36-2.74,1.08-.67.72-1.01,1.55-1.01,2.48,0,.59.12,1.12.36,1.58.33.62.85,1.23,1.58,1.84.53.44,1.76,1.21,3.69,2.32,2.7,1.54,4.51,3,5.45,4.38.93,1.37,1.39,2.94,1.39,4.71,0,2.24-.75,4.17-2.25,5.79s-3.41,2.43-5.72,2.43c-.73,0-1.41-.09-2.06-.26s-1.46-.49-2.43-.97c-.54-.26-.99-.4-1.34-.4-.29,0-.61.13-.93.4-.33.26-.59.67-.8,1.21h-.63v-10.14h.63c.5,2.85,1.46,5.03,2.88,6.52,1.42,1.5,2.95,2.25,4.6,2.25,1.27,0,2.28-.4,3.03-1.21.75-.8,1.13-1.74,1.13-2.81,0-.63-.14-1.25-.43-1.84-.29-.59-.73-1.16-1.32-1.69s-1.63-1.23-3.13-2.09c-2.1-1.2-3.6-2.22-4.52-3.07-.92-.84-1.62-1.79-2.12-2.83-.49-1.04-.74-2.19-.74-3.45,0-2.14.67-3.96,2.02-5.46,1.35-1.5,3.05-2.26,5.1-2.26.75,0,1.47.11,2.17.32.53.16,1.18.45,1.95.88.76.43,1.3.64,1.61.64.29,0,.53-.11.7-.32.17-.21.33-.72.48-1.52h.5Z"/>
      <path class="cls-1" d="M282.6,145.35l.19,8.95h-.7c-.33-2.24-1.14-4.05-2.42-5.42-1.29-1.37-2.68-2.05-4.17-2.05-1.16,0-2.07.36-2.74,1.08-.67.72-1.01,1.55-1.01,2.48,0,.59.12,1.12.36,1.58.33.62.85,1.23,1.58,1.84.53.44,1.76,1.21,3.69,2.32,2.7,1.54,4.51,3,5.45,4.38.93,1.37,1.39,2.94,1.39,4.71,0,2.24-.75,4.17-2.25,5.79s-3.41,2.43-5.72,2.43c-.73,0-1.41-.09-2.06-.26s-1.46-.49-2.43-.97c-.54-.26-.99-.4-1.34-.4-.29,0-.61.13-.93.4-.33.26-.59.67-.8,1.21h-.63v-10.14h.63c.5,2.85,1.46,5.03,2.88,6.52,1.42,1.5,2.95,2.25,4.6,2.25,1.27,0,2.28-.4,3.03-1.21.75-.8,1.13-1.74,1.13-2.81,0-.63-.14-1.25-.43-1.84-.29-.59-.73-1.16-1.32-1.69s-1.63-1.23-3.13-2.09c-2.1-1.2-3.6-2.22-4.52-3.07-.92-.84-1.62-1.79-2.12-2.83-.49-1.04-.74-2.19-.74-3.45,0-2.14.67-3.96,2.02-5.46,1.35-1.5,3.05-2.26,5.1-2.26.75,0,1.47.11,2.17.32.53.16,1.18.45,1.95.88.76.43,1.3.64,1.61.64.29,0,.53-.11.7-.32.17-.21.33-.72.48-1.52h.5Z"/>
      <path class="cls-1" d="M313.31,145.59c3.67-.16,6.65,1.09,8.94,3.74s3.44,5.97,3.44,9.96c0,3.41-.86,6.4-2.57,8.99-2.26,3.43-5.46,5.15-9.6,5.15s-7.35-1.64-9.62-4.91c-1.79-2.59-2.68-5.66-2.68-9.21,0-3.99,1.16-7.31,3.49-9.97,2.34-2.66,5.2-3.91,8.6-3.75ZM313.52,146.86c-2.11,0-3.71,1.25-4.81,3.76-.89,2.06-1.34,5.02-1.34,8.87,0,4.58.69,7.97,2.07,10.16.96,1.53,2.31,2.3,4.04,2.3,1.17,0,2.14-.33,2.92-.99,1-.84,1.77-2.19,2.33-4.05.55-1.85.83-4.27.83-7.26,0-3.55-.28-6.21-.85-7.97s-1.29-3.01-2.17-3.73-1.88-1.09-3.02-1.09Z"/>
      <path class="cls-1" d="M364.43,145.35v9.31h-.66c-.5-2.43-1.43-4.29-2.79-5.58-1.36-1.29-2.9-1.94-4.62-1.94-1.44,0-2.76.48-3.96,1.45-1.2.96-2.08,2.22-2.63,3.78-.71,1.99-1.07,4.21-1.07,6.65s.26,4.59.78,6.56,1.34,3.46,2.45,4.47c1.11,1.01,2.55,1.51,4.32,1.51,1.45,0,2.78-.37,3.98-1.11,1.21-.74,2.48-2.01,3.81-3.82v2.32c-1.29,1.57-2.64,2.71-4.03,3.42-1.4.71-3.03,1.06-4.9,1.06-2.46,0-4.64-.57-6.55-1.72s-3.38-2.8-4.42-4.95c-1.04-2.15-1.55-4.44-1.55-6.87,0-2.56.58-4.99,1.72-7.29s2.7-4.08,4.66-5.35c1.95-1.27,4.03-1.9,6.23-1.9,1.62,0,3.33.41,5.13,1.23,1.04.48,1.7.71,1.99.71.36,0,.68-.15.94-.47.27-.31.44-.8.52-1.48h.65Z"/>
      <path class="cls-1" d="M393.34,172.09v.73h-12.05v-.73h.76c.67,0,1.21-.14,1.61-.42.29-.18.52-.5.68-.95.12-.32.19-1.15.19-2.5v-17.66c0-1.37-.06-2.23-.19-2.57-.12-.34-.38-.64-.76-.9-.38-.26-.89-.39-1.54-.39h-.76v-.73h12.05v.73h-.76c-.67,0-1.21.14-1.61.42-.29.19-.53.5-.7.95-.12.32-.19,1.15-.19,2.49v17.66c0,1.37.07,2.23.2,2.57s.38.64.76.9c.38.26.89.39,1.54.39h.77Z"/>
      <path class="cls-1" d="M422.87,165.17h-8.14l-.97,2.61c-.32.87-.48,1.59-.48,2.16,0,.75.26,1.31.78,1.66.31.21,1.06.37,2.26.48v.73h-7.66v-.73c.83-.15,1.51-.54,2.04-1.2s1.19-2,1.97-4.05l8.24-21.42h.32l8.31,22.02c.79,2.09,1.44,3.4,1.95,3.94.38.41.93.65,1.63.71v.73h-11.14v-.73h.46c.89,0,1.52-.15,1.89-.44.25-.21.37-.51.37-.91,0-.24-.03-.48-.1-.73-.02-.12-.19-.61-.51-1.49l-1.22-3.34ZM422.3,163.71l-3.43-9.25-3.53,9.25h6.96Z"/>
      <path class="cls-1" d="M467.16,145.97v7.27h-.61c-.36-1.68-.76-2.88-1.21-3.61-.44-.73-1.05-1.32-1.82-1.75-.43-.24-1.18-.36-2.26-.36h-1.72v20.71c0,1.37.07,2.23.2,2.57s.38.64.76.9c.38.26.9.39,1.55.39h.76v.73h-12.04v-.73h.76c.67,0,1.21-.14,1.61-.42.29-.18.53-.5.7-.95.12-.32.19-1.15.19-2.5v-20.71h-1.67c-1.55,0-2.68.38-3.38,1.15-.99,1.07-1.61,2.59-1.87,4.57h-.65v-7.27h20.7Z"/>
      <path class="cls-1" d="M495.43,172.09v.73h-12.05v-.73h.76c.67,0,1.21-.14,1.61-.42.29-.18.52-.5.68-.95.12-.32.19-1.15.19-2.5v-17.66c0-1.37-.06-2.23-.19-2.57-.12-.34-.38-.64-.76-.9-.38-.26-.89-.39-1.54-.39h-.76v-.73h12.05v.73h-.76c-.67,0-1.21.14-1.61.42-.29.19-.53.5-.7.95-.12.32-.19,1.15-.19,2.49v17.66c0,1.37.07,2.23.2,2.57s.38.64.76.9c.38.26.89.39,1.54.39h.77Z"/>
      <path class="cls-1" d="M523.93,145.59c3.67-.16,6.65,1.09,8.94,3.74s3.44,5.97,3.44,9.96c0,3.41-.86,6.4-2.57,8.99-2.26,3.43-5.46,5.15-9.6,5.15s-7.35-1.64-9.62-4.91c-1.79-2.59-2.68-5.66-2.68-9.21,0-3.99,1.16-7.31,3.49-9.97,2.34-2.66,5.2-3.91,8.6-3.75ZM524.13,146.86c-2.11,0-3.71,1.25-4.81,3.76-.89,2.06-1.34,5.02-1.34,8.87,0,4.58.69,7.97,2.07,10.16.96,1.53,2.31,2.3,4.04,2.3,1.17,0,2.14-.33,2.92-.99,1-.84,1.77-2.19,2.33-4.05.55-1.85.83-4.27.83-7.26,0-3.55-.28-6.21-.85-7.97-.57-1.76-1.29-3.01-2.17-3.73s-1.88-1.09-3.02-1.09Z"/>
      <path class="cls-1" d="M560.48,145.97l11.37,16.65v-11.54c0-1.61-.2-2.7-.59-3.27-.54-.77-1.46-1.14-2.74-1.11v-.73h7.61v.73c-.97.15-1.63.33-1.96.56s-.59.61-.78,1.13c-.19.52-.28,1.42-.28,2.68v22.35h-.58l-15.58-22.35v17.07c0,1.54.3,2.59.91,3.13s1.3.81,2.08.81h.54v.73h-8.17v-.73c1.27-.01,2.15-.32,2.65-.91s.75-1.6.75-3.03v-18.95l-.49-.71c-.49-.71-.92-1.18-1.29-1.41-.37-.22-.91-.35-1.61-.38v-.73h8.16Z"/>
    </g>
    <line class="cls-4" x1="193.97" y1="47.43" x2="579.22" y2="47.43"/>
    <line class="cls-4" x1="193.97" y1="137.4" x2="579.22" y2="137.4"/>
  </g>
</svg>