<svg xmlns="http://www.w3.org/2000/svg" viewBox="0 0 294.45 48.13"><defs><style>.cls-1{fill:#14213c;}.cls-2,.cls-5{fill:#15213d;}.cls-3{fill:#fff;}.cls-4{fill:#e6525b;}.cls-5{stroke:#15213d;stroke-miterlimit:10;stroke-width:0.25px;}</style></defs><g id="Layer_2" data-name="Layer 2"><g id="Layer_1-2" data-name="Layer 1"><path class="cls-1" d="M75.21,36.34l5-25.2H91.63a16.71,16.71,0,0,1,6.87,1.29,10.07,10.07,0,0,1,4.43,3.69,10.31,10.31,0,0,1,1.55,5.71,14.78,14.78,0,0,1-1.17,6A13.19,13.19,0,0,1,100,32.41a14.22,14.22,0,0,1-5,2.92,19.12,19.12,0,0,1-6.34,1ZM85,29.71h4a6.86,6.86,0,0,0,3.8-1,6.31,6.31,0,0,0,2.32-2.66,8.6,8.6,0,0,0,.79-3.73,4.87,4.87,0,0,0-.59-2.48,3.9,3.9,0,0,0-1.77-1.55,6.87,6.87,0,0,0-2.89-.54H87.42Z"/><path class="cls-1" d="M117.94,36.87a13.85,13.85,0,0,1-6.22-1.32,9.87,9.87,0,0,1-4.06-3.65,10.06,10.06,0,0,1-1.43-5.36,14.3,14.3,0,0,1,1.07-5.6,13,13,0,0,1,3-4.37,13.61,13.61,0,0,1,4.62-2.85,16.47,16.47,0,0,1,5.84-1A13.68,13.68,0,0,1,127,14a9.69,9.69,0,0,1,5.5,9,14.07,14.07,0,0,1-1.08,5.59,12.83,12.83,0,0,1-3,4.37,13.3,13.3,0,0,1-4.62,2.86A16.47,16.47,0,0,1,117.94,36.87Zm.66-6.31a5.52,5.52,0,0,0,2.56-.56,5.67,5.67,0,0,0,1.9-1.55,6.88,6.88,0,0,0,1.19-2.26,9.11,9.11,0,0,0,.39-2.69,4.92,4.92,0,0,0-.54-2.36,4,4,0,0,0-1.55-1.57,5,5,0,0,0-2.43-.56,5.49,5.49,0,0,0-4.45,2.11,6.8,6.8,0,0,0-1.19,2.26,8.85,8.85,0,0,0-.4,2.69,4.85,4.85,0,0,0,.55,2.35A3.81,3.81,0,0,0,116.18,30,4.84,4.84,0,0,0,118.6,30.56Z"/><path class="cls-1" d="M155,15.23c-1.67-1.33-4-2-7.09-2H137.54l-4.61,23.1h7.78l1.17-5.81h1.89l3.28,5.81h8.08l-3.84-6.72c.25-.1.49-.2.72-.31a9.42,9.42,0,0,0,4.06-3.4,9,9,0,0,0,1.44-5.08A6.75,6.75,0,0,0,155,15.23Zm-6.27,8.61a3.59,3.59,0,0,1-2.51.81H143l1.09-5.41h2.6a3.69,3.69,0,0,1,2.13.54,2.08,2.08,0,0,1,.77,1.8A2.87,2.87,0,0,1,148.73,23.84Z"/><polygon class="cls-1" points="184.24 13.23 172.57 27.96 170.91 36.34 163.12 36.34 164.8 27.86 159.03 13.23 166.85 13.23 169.99 21.23 176.42 13.23 184.24 13.23"/><path class="cls-1" d="M206.41,24a8.09,8.09,0,0,0-1.16-.65,8.2,8.2,0,0,0,3.14-2.25,6,6,0,0,0,1.35-4,5.09,5.09,0,0,0-2.27-4.44q-2.26-1.57-6.77-1.57H187.35l-5,25.2h14.54a19.63,19.63,0,0,0,5.91-.84A9.49,9.49,0,0,0,207,32.86a6.55,6.55,0,0,0,1.6-4.55A4.93,4.93,0,0,0,206.41,24Zm-7,5.82a3.51,3.51,0,0,1-2.07.57h-5.47l.79-4h5.47a2.58,2.58,0,0,1,1.46.42,1.38,1.38,0,0,1,.63,1.24A2,2,0,0,1,199.39,29.82Zm1.21-10a1.9,1.9,0,0,1-.92.76,4.11,4.11,0,0,1-1.6.27h-4.32l.75-3.75h4.14a3.06,3.06,0,0,1,1.64.38,1.28,1.28,0,0,1,.6,1.17A2.25,2.25,0,0,1,200.6,19.79Z"/><path class="cls-1" d="M223.13,36.87a13.85,13.85,0,0,1-6.22-1.32,9.87,9.87,0,0,1-4.06-3.65,10.06,10.06,0,0,1-1.43-5.36,14.3,14.3,0,0,1,1.07-5.6,13,13,0,0,1,3-4.37,13.61,13.61,0,0,1,4.62-2.85,16.47,16.47,0,0,1,5.84-1A13.68,13.68,0,0,1,232.19,14a9.69,9.69,0,0,1,5.5,9,14.07,14.07,0,0,1-1.08,5.59,12.83,12.83,0,0,1-3,4.37A13.3,13.3,0,0,1,229,35.86,16.43,16.43,0,0,1,223.13,36.87Zm.66-6.31a5.52,5.52,0,0,0,2.56-.56,5.67,5.67,0,0,0,1.9-1.55,6.88,6.88,0,0,0,1.19-2.26,9.11,9.11,0,0,0,.39-2.69,4.92,4.92,0,0,0-.54-2.36,4,4,0,0,0-1.55-1.57,5,5,0,0,0-2.43-.56,5.49,5.49,0,0,0-4.45,2.11,6.8,6.8,0,0,0-1.19,2.26,8.85,8.85,0,0,0-.4,2.69,4.85,4.85,0,0,0,.55,2.35A3.81,3.81,0,0,0,221.37,30,4.84,4.84,0,0,0,223.79,30.56Z"/><path class="cls-1" d="M251.12,36.87a13.82,13.82,0,0,1-6.22-1.32,9.81,9.81,0,0,1-4.06-3.65,10,10,0,0,1-1.44-5.36,14.3,14.3,0,0,1,1.07-5.6,13.11,13.11,0,0,1,3-4.37,13.61,13.61,0,0,1,4.62-2.85,16.52,16.52,0,0,1,5.85-1A13.71,13.71,0,0,1,260.18,14a9.87,9.87,0,0,1,4.06,3.65A10,10,0,0,1,265.67,23a14.25,14.25,0,0,1-1.07,5.59,13,13,0,0,1-3,4.37A13.48,13.48,0,0,1,257,35.86,16.47,16.47,0,0,1,251.12,36.87Zm.66-6.31a5.45,5.45,0,0,0,2.55-.56,5.67,5.67,0,0,0,1.9-1.55,6.7,6.7,0,0,0,1.19-2.26,9.12,9.12,0,0,0,.4-2.69,4.81,4.81,0,0,0-.55-2.36,3.9,3.9,0,0,0-1.55-1.57A5,5,0,0,0,253.3,19a5.69,5.69,0,0,0-2.55.56,5.83,5.83,0,0,0-1.91,1.55,7,7,0,0,0-1.19,2.26,9.16,9.16,0,0,0-.39,2.69,5,5,0,0,0,.54,2.35A3.81,3.81,0,0,0,249.35,30,4.85,4.85,0,0,0,251.78,30.56Z"/><polygon class="cls-1" points="282.87 23.75 290.39 36.34 281.71 36.34 277.03 28.82 274.85 30.84 273.75 36.34 266.1 36.34 270.72 13.23 278.37 13.23 276.73 21.43 285.5 13.23 294.45 13.23 282.87 23.75"/><path class="cls-2" d="M41.58,11.17a.27.27,0,0,1-.26-.2,15.12,15.12,0,0,0-1-2.47A14.76,14.76,0,0,0,20.39,2.21.28.28,0,0,1,20,2.09a.27.27,0,0,1,.12-.37A15.32,15.32,0,0,1,40.79,8.24a16.36,16.36,0,0,1,1.06,2.57.29.29,0,0,1-.19.35Z"/><polygon class="cls-2" points="44.04 9.6 42.23 14.81 38.63 10.64 44.04 9.6"/><path class="cls-2" d="M24.17,8.09a6.46,6.46,0,0,0-1.82.27,7.22,7.22,0,0,0-14.28,0,6.46,6.46,0,0,0-1.82-.27,6.25,6.25,0,1,0,0,12.49H24.17a6.25,6.25,0,1,0,0-12.49Z"/><path class="cls-3" d="M15.91,15.67l0-.6A.13.13,0,0,1,16,15a2,2,0,0,0,.38-.2.17.17,0,0,1,.14,0l.54.28a.14.14,0,0,0,.18,0h0l.37-.49a.14.14,0,0,0,0-.18L17.13,14s0,0,0,0a2,2,0,0,0,.13-.42.18.18,0,0,1,.11-.08l.58-.18A.13.13,0,0,0,18,13.1h0l-.08-.6a.12.12,0,0,0-.14-.11l-.61,0h-.06a2,2,0,0,0-.2-.38.17.17,0,0,1,0-.14l.27-.54a.13.13,0,0,0,0-.18h0l-.49-.37a.14.14,0,0,0-.18,0l-.44.41-.05,0a1.87,1.87,0,0,0-.42-.13.2.2,0,0,1-.08-.12l-.18-.57a.13.13,0,0,0-.15-.11h0l-.6.08a.12.12,0,0,0-.11.14l0,.61v.06a1.79,1.79,0,0,0-.39.2.17.17,0,0,1-.14,0l-.54-.27a.13.13,0,0,0-.18,0h0l-.37.49a.13.13,0,0,0,0,.18l.4.44,0,.05a2.58,2.58,0,0,0-.13.42.12.12,0,0,1-.11.07l-.58.19a.12.12,0,0,0-.11.14h0l.08.61a.12.12,0,0,0,.14.11l.61,0h.06a1.79,1.79,0,0,0,.2.39.17.17,0,0,1,0,.14l-.28.54a.14.14,0,0,0,0,.18h0l.49.37a.13.13,0,0,0,.18,0l.45-.41,0,0a2.07,2.07,0,0,0,.42.14.15.15,0,0,1,.08.11l.18.58a.13.13,0,0,0,.15.11h0l.6-.08A.13.13,0,0,0,15.91,15.67Zm-1.57-2.46a.88.88,0,1,1,1,.75A.87.87,0,0,1,14.34,13.21Z"/><path class="cls-4" d="M22.84,35.19a15.24,15.24,0,0,1-12.7-6.75A14.72,14.72,0,0,1,8.8,26,.28.28,0,0,1,9,25.65a.26.26,0,0,1,.36.14,15.35,15.35,0,0,0,1.29,2.35,14.78,14.78,0,0,0,20.49,4,.29.29,0,0,1,.39.08.28.28,0,0,1-.08.38A15.27,15.27,0,0,1,22.84,35.19Z"/><polygon class="cls-4" points="6.76 27.46 7.97 22.09 12.02 25.82 6.76 27.46"/><path class="cls-4" d="M41.75,16.56a6.46,6.46,0,0,0-1.82.27,7.22,7.22,0,0,0-14.28,0,6.46,6.46,0,0,0-1.82-.27,6.25,6.25,0,1,0,0,12.49H41.75a6.25,6.25,0,1,0,0-12.49Z"/><path class="cls-3" d="M30,22.47l.67,0h.07a2.42,2.42,0,0,0,.27.41A.16.16,0,0,1,31,23l-.24.63a.15.15,0,0,0,0,.2h0l.58.35a.15.15,0,0,0,.2-.05l.45-.5a.12.12,0,0,1,.05-.05,2.46,2.46,0,0,0,.47.1.16.16,0,0,1,.1.11l.28.62a.13.13,0,0,0,.17.1h0l.66-.16a.14.14,0,0,0,.1-.17l0-.67v-.07a2.23,2.23,0,0,0,.41-.27.2.2,0,0,1,.15,0l.63.25a.13.13,0,0,0,.19-.05h0l.36-.58a.15.15,0,0,0,0-.2L35,22.13l0,0a2.05,2.05,0,0,0,.1-.48.2.2,0,0,1,.12-.1l.62-.27a.15.15,0,0,0,.1-.18h0l-.16-.66a.15.15,0,0,0-.17-.1l-.68,0a.06.06,0,0,1-.06,0,2.8,2.8,0,0,0-.27-.4.18.18,0,0,1,0-.16l.24-.63a.14.14,0,0,0-.05-.19h0l-.58-.35a.13.13,0,0,0-.19,0l-.45.51s0,0,0,.05a1.88,1.88,0,0,0-.47-.1.15.15,0,0,1-.1-.12l-.28-.61a.14.14,0,0,0-.17-.11h0l-.66.16a.14.14,0,0,0-.1.18l0,.67v.07a2.19,2.19,0,0,0-.41.26.16.16,0,0,1-.15,0l-.63-.24a.15.15,0,0,0-.2.05h0L30,20a.13.13,0,0,0,0,.19l.5.45a.12.12,0,0,1,.05.05,2.46,2.46,0,0,0-.1.47.16.16,0,0,1-.11.1l-.62.28a.14.14,0,0,0-.1.17h0l.16.66A.15.15,0,0,0,30,22.47Zm2.55-2a1,1,0,0,1,1.18.72,1,1,0,0,1-1.9.47A1,1,0,0,1,32.56,20.43Z"/><path class="cls-5" d="M4.17,42.49a4.32,4.32,0,0,1-.54.23,2.78,2.78,0,0,1-.5.11,4.75,4.75,0,0,1-.56,0,2.2,2.2,0,0,1-1.83-.74,2.94,2.94,0,0,1-.57-1.85,2.84,2.84,0,0,1,.6-1.87,2.23,2.23,0,0,1,1.84-.73,6.39,6.39,0,0,1,1.55.22v.65a7.6,7.6,0,0,0-1-.3,3.49,3.49,0,0,0-.53,0,1.42,1.42,0,0,0-1.29.6,2.62,2.62,0,0,0-.4,1.48,2.26,2.26,0,0,0,.46,1.48,1.59,1.59,0,0,0,1.3.56,3.42,3.42,0,0,0,.46,0,2.75,2.75,0,0,0,.47-.13,4.23,4.23,0,0,0,.57-.26Z"/><path class="cls-5" d="M5.19,42.74V37.8h.7v4.42H8.08v.52Z"/><path class="cls-5" d="M10.85,42.87a2.34,2.34,0,0,1-1.22-.32,2.1,2.1,0,0,1-.8-.91,3.4,3.4,0,0,1,0-2.7A2,2,0,0,1,9.62,38a2.26,2.26,0,0,1,1.23-.33,2.32,2.32,0,0,1,1.24.33,2,2,0,0,1,.8.93,3.41,3.41,0,0,1,0,2.66,2.06,2.06,0,0,1-.79.93A2.23,2.23,0,0,1,10.85,42.87Zm0-.53A1.33,1.33,0,0,0,12,41.78a2.51,2.51,0,0,0,.41-1.51A2.54,2.54,0,0,0,12,38.75a1.39,1.39,0,0,0-1.16-.55,1.37,1.37,0,0,0-1.15.55,2.47,2.47,0,0,0-.41,1.52,2.44,2.44,0,0,0,.41,1.51A1.32,1.32,0,0,0,10.85,42.34Z"/><path class="cls-5" d="M14.1,37.8h.71v3.12a1.6,1.6,0,0,0,.3,1.12,1.14,1.14,0,0,0,.85.3,1.28,1.28,0,0,0,.58-.12.8.8,0,0,0,.37-.38,2.37,2.37,0,0,0,.13-.9V37.8h.61v3.13a2.51,2.51,0,0,1-.2,1.16,1.46,1.46,0,0,1-.56.57,1.9,1.9,0,0,1-1,.21,2.19,2.19,0,0,1-1-.22,1.51,1.51,0,0,1-.6-.6,2.56,2.56,0,0,1-.2-1.14Z"/><path class="cls-5" d="M18.88,42.74V37.8h1.64a2.89,2.89,0,0,1,1.44.28,1.86,1.86,0,0,1,.77.8A2.66,2.66,0,0,1,23,40.16a3.23,3.23,0,0,1-.25,1.29,2.17,2.17,0,0,1-.78.94,2.61,2.61,0,0,1-1.45.35Zm.7-.52h.9A2.08,2.08,0,0,0,21.53,42a1.48,1.48,0,0,0,.54-.71,2.79,2.79,0,0,0,.2-1.07,2.63,2.63,0,0,0-.17-.95,1.61,1.61,0,0,0-.55-.69,2.71,2.71,0,0,0-1.39-.25h-.58Z"/><path class="cls-5" d="M26.17,42.74V37.8h.7v2.08h2.35V37.8h.7v4.94h-.7V40.41H26.87v2.33Z"/><path class="cls-5" d="M33.21,42.87A2.31,2.31,0,0,1,32,42.55a2.1,2.1,0,0,1-.8-.91,3.4,3.4,0,0,1,0-2.7A2,2,0,0,1,32,38a2.26,2.26,0,0,1,1.23-.33,2.32,2.32,0,0,1,1.24.33,2,2,0,0,1,.8.93,3.41,3.41,0,0,1,0,2.66,2.06,2.06,0,0,1-.79.93A2.23,2.23,0,0,1,33.21,42.87Zm0-.53a1.33,1.33,0,0,0,1.16-.56,2.51,2.51,0,0,0,.41-1.51,2.47,2.47,0,0,0-.42-1.52,1.48,1.48,0,0,0-2.3,0,2.47,2.47,0,0,0-.41,1.52,2.51,2.51,0,0,0,.4,1.51A1.34,1.34,0,0,0,33.21,42.34Z"/><path class="cls-5" d="M36.46,37.8h.7v3.12A1.59,1.59,0,0,0,37.47,42a1.14,1.14,0,0,0,.85.3,1.28,1.28,0,0,0,.58-.12.74.74,0,0,0,.36-.38,2.18,2.18,0,0,0,.13-.9V37.8H40v3.13a2.51,2.51,0,0,1-.2,1.16,1.46,1.46,0,0,1-.56.57,1.9,1.9,0,0,1-1,.21,2.16,2.16,0,0,1-1-.22,1.51,1.51,0,0,1-.6-.6,2.56,2.56,0,0,1-.2-1.14Z"/><path class="cls-5" d="M40.94,42.65V42a4.68,4.68,0,0,0,.87.34,3.36,3.36,0,0,0,.51.05,1,1,0,0,0,.68-.23.74.74,0,0,0,.24-.56.89.89,0,0,0-.12-.45,2,2,0,0,0-.66-.49l-.34-.2a3.07,3.07,0,0,1-.92-.71A1.2,1.2,0,0,1,41,39a1.31,1.31,0,0,1,.18-.66,1.44,1.44,0,0,1,.5-.48,1.71,1.71,0,0,1,.79-.17,4.06,4.06,0,0,1,1.21.19v.64a5.19,5.19,0,0,0-.76-.26,1.84,1.84,0,0,0-.41,0,.83.83,0,0,0-.64.23.7.7,0,0,0-.2.45.6.6,0,0,0,.1.33.86.86,0,0,0,.26.28,3.66,3.66,0,0,0,.45.28l.36.2a2.94,2.94,0,0,1,.92.72,1.35,1.35,0,0,1-.21,1.75,1.82,1.82,0,0,1-1.3.43,4.06,4.06,0,0,1-.51,0A5.46,5.46,0,0,1,40.94,42.65Z"/><path class="cls-5" d="M44.92,42.74V37.8h2.77v.53H45.62v1.58h1.74v.52H45.62v1.79h2.21v.52Z"/><path class="cls-5" d="M1.42,47.92v-2.8H.31v-.33H3v.33H1.86v2.8Z"/><path class="cls-5" d="M4.78,47.92V44.79H6.54v.33H5.23v1H6.32v.33H5.23v1.13h1.4v.33Z"/><path class="cls-5" d="M10.85,47.76a1.87,1.87,0,0,1-.34.15l-.32.07-.35,0a1.4,1.4,0,0,1-1.16-.47,1.85,1.85,0,0,1-.36-1.17,1.74,1.74,0,0,1,.38-1.18,1.41,1.41,0,0,1,1.16-.47,4.42,4.42,0,0,1,1,.14v.42a4.77,4.77,0,0,0-.66-.19l-.33,0a.9.9,0,0,0-.82.38,1.61,1.61,0,0,0-.25.93,1.41,1.41,0,0,0,.29.94,1,1,0,0,0,.82.35l.3,0,.29-.08a2.74,2.74,0,0,0,.36-.17Z"/><path class="cls-5" d="M12.87,47.92V44.79h.44v1.32H14.8V44.79h.44v3.13H14.8V46.44H13.31v1.48Z"/><path class="cls-5" d="M17.42,47.92V44.79h.44l1.57,2.42V44.79h.38v3.13h-.44L17.8,45.51v2.41Z"/><path class="cls-5" d="M23.27,48a1.51,1.51,0,0,1-.78-.2,1.39,1.39,0,0,1-.51-.58,2.12,2.12,0,0,1,0-1.71,1.31,1.31,0,0,1,.5-.59,1.48,1.48,0,0,1,.79-.21,1.45,1.45,0,0,1,.78.21,1.4,1.4,0,0,1,.51.59,2.11,2.11,0,0,1,.17.85,2.07,2.07,0,0,1-.17.84,1.31,1.31,0,0,1-.5.59A1.48,1.48,0,0,1,23.27,48Zm0-.33a.87.87,0,0,0,.73-.35,1.64,1.64,0,0,0,.26-1,1.58,1.58,0,0,0-.26-1,.85.85,0,0,0-.73-.35.83.83,0,0,0-.73.35,1.51,1.51,0,0,0-.26,1,1.64,1.64,0,0,0,.25,1A.88.88,0,0,0,23.27,47.67Z"/><path class="cls-5" d="M26.72,47.92V44.79h.45v2.8h1.39v.33Z"/><path class="cls-5" d="M31.68,48a1.47,1.47,0,0,1-.77-.2,1.26,1.26,0,0,1-.51-.58,2,2,0,0,1-.18-.86,2.11,2.11,0,0,1,.17-.85,1.28,1.28,0,0,1,.51-.59,1.55,1.55,0,0,1,1.56,0,1.28,1.28,0,0,1,.51.59,2,2,0,0,1,.17.85,1.91,1.91,0,0,1-.17.84,1.31,1.31,0,0,1-.5.59A1.43,1.43,0,0,1,31.68,48Zm0-.33a.85.85,0,0,0,.73-.35,1.57,1.57,0,0,0,.26-1,1.51,1.51,0,0,0-.26-1,.94.94,0,0,0-1.46,0,1.58,1.58,0,0,0-.26,1,1.64,1.64,0,0,0,.26,1A.87.87,0,0,0,31.68,47.67Z"/><path class="cls-5" d="M37.49,47.84a5.49,5.49,0,0,1-.6.14l-.39,0a1.73,1.73,0,0,1-.89-.2,1.3,1.3,0,0,1-.49-.59,2.11,2.11,0,0,1-.17-.85,1.8,1.8,0,0,1,.38-1.18,1.42,1.42,0,0,1,1.16-.47,3.5,3.5,0,0,1,1,.15v.41a5.35,5.35,0,0,0-.65-.2l-.34,0a.87.87,0,0,0-.81.38,1.66,1.66,0,0,0-.26.93,1.81,1.81,0,0,0,.11.63,1,1,0,0,0,.36.49,1.13,1.13,0,0,0,.67.19h.21l.27-.07v-1h.45Z"/><path class="cls-5" d="M39.63,47.92V44.79h.45v3.13Z"/><path class="cls-5" d="M42.25,47.92V44.79H44v.33H42.7v1h1.09v.33H42.7v1.13h1.4v.33Z"/><path class="cls-5" d="M45.78,47.86v-.44a2.55,2.55,0,0,0,.55.21,1.35,1.35,0,0,0,.33,0,.57.57,0,0,0,.42-.15.44.44,0,0,0,.16-.35.6.6,0,0,0-.08-.29,1.39,1.39,0,0,0-.42-.31l-.21-.13A1.9,1.9,0,0,1,46,46a.76.76,0,0,1-.15-.45.79.79,0,0,1,.12-.42.84.84,0,0,1,.31-.31,1.06,1.06,0,0,1,.5-.11,2.44,2.44,0,0,1,.77.13v.4L47,45.07l-.26,0a.51.51,0,0,0-.41.14.45.45,0,0,0-.13.29.39.39,0,0,0,.06.2.73.73,0,0,0,.17.18l.29.18.22.13a1.82,1.82,0,0,1,.59.45.8.8,0,0,1,.14.48.84.84,0,0,1-.28.63,1.13,1.13,0,0,1-.82.27l-.32,0Z"/></g></g></svg>