<svg xmlns="http://www.w3.org/2000/svg" viewBox="0 0 219.23 25.73"><defs><style>.cls-1{fill:#14213c;}</style></defs><g id="Layer_2" data-name="Layer 2"><g id="Layer_1-2" data-name="Layer 1"><path class="cls-1" d="M0,25.2,5,0H16.42a16.71,16.71,0,0,1,6.87,1.3A9.94,9.94,0,0,1,27.72,5a10.31,10.31,0,0,1,1.55,5.71,14.81,14.81,0,0,1-1.17,6,13.28,13.28,0,0,1-3.28,4.57,14.53,14.53,0,0,1-5,2.92,19.16,19.16,0,0,1-6.34,1Zm9.83-6.62h4a6.86,6.86,0,0,0,3.8-1,6.37,6.37,0,0,0,2.32-2.66,8.6,8.6,0,0,0,.79-3.73,4.87,4.87,0,0,0-.59-2.48,3.85,3.85,0,0,0-1.77-1.55,6.89,6.89,0,0,0-2.9-.54H12.2Z"/><path class="cls-1" d="M42.73,25.73a13.68,13.68,0,0,1-6.22-1.32,9.85,9.85,0,0,1-4.06-3.64A10,10,0,0,1,31,15.4a14.07,14.07,0,0,1,1.07-5.59,12.83,12.83,0,0,1,3-4.37,13.64,13.64,0,0,1,4.62-2.86,16.46,16.46,0,0,1,5.84-1A13.68,13.68,0,0,1,51.79,2.9a9.85,9.85,0,0,1,4.06,3.64,10,10,0,0,1,1.43,5.37,14.07,14.07,0,0,1-1.07,5.59,12.83,12.83,0,0,1-3,4.37,13.64,13.64,0,0,1-4.62,2.86A16.46,16.46,0,0,1,42.73,25.73Zm.66-6.3A5.64,5.64,0,0,0,46,18.87a5.8,5.8,0,0,0,1.9-1.55A7,7,0,0,0,49,15.06a8.85,8.85,0,0,0,.4-2.69A4.92,4.92,0,0,0,48.89,10a3.87,3.87,0,0,0-1.56-1.57,5,5,0,0,0-2.42-.56A5.53,5.53,0,0,0,40.45,10a6.86,6.86,0,0,0-1.18,2.26,8.85,8.85,0,0,0-.4,2.69,4.82,4.82,0,0,0,.55,2.34A3.77,3.77,0,0,0,41,18.87,5,5,0,0,0,43.39,19.43Z"/><path class="cls-1" d="M79.79,4.1c-1.67-1.33-4-2-7.09-2H62.33L57.71,25.2H65.5l1.16-5.8h1.9l3.28,5.8h8.08l-3.84-6.72a7.76,7.76,0,0,0,.72-.3,9.56,9.56,0,0,0,4.06-3.4A9,9,0,0,0,82.3,9.69,6.75,6.75,0,0,0,79.79,4.1Zm-6.27,8.61a3.59,3.59,0,0,1-2.51.81H67.82l1.09-5.41h2.6a3.69,3.69,0,0,1,2.13.54,2.08,2.08,0,0,1,.77,1.8A2.89,2.89,0,0,1,73.52,12.71Z"/><polygon class="cls-1" points="109.03 2.1 97.36 16.84 95.7 25.2 87.91 25.2 89.59 16.72 83.82 2.1 91.64 2.1 94.78 10.1 101.21 2.1 109.03 2.1"/><path class="cls-1" d="M131.2,12.87a8.09,8.09,0,0,0-1.16-.65A8.08,8.08,0,0,0,133.18,10a6,6,0,0,0,1.35-4,5.09,5.09,0,0,0-2.27-4.45C130.75.53,128.49,0,125.49,0H112.14l-5,25.2h14.54a19.63,19.63,0,0,0,5.91-.84,9.49,9.49,0,0,0,4.26-2.63,6.55,6.55,0,0,0,1.6-4.55A4.93,4.93,0,0,0,131.2,12.87ZM119.3,5.94h4.14a3.06,3.06,0,0,1,1.64.38,1.27,1.27,0,0,1,.59,1.17,2.25,2.25,0,0,1-.28,1.17,1.9,1.9,0,0,1-.92.76,4.11,4.11,0,0,1-1.6.27h-4.32Zm4.88,12.75a3.51,3.51,0,0,1-2.07.57h-5.47l.79-4h5.47a2.58,2.58,0,0,1,1.46.42A1.38,1.38,0,0,1,125,17,2,2,0,0,1,124.18,18.69Z"/><path class="cls-1" d="M147.92,25.73a13.68,13.68,0,0,1-6.22-1.32,9.85,9.85,0,0,1-4.06-3.64,10,10,0,0,1-1.43-5.37,14.07,14.07,0,0,1,1.07-5.59,12.83,12.83,0,0,1,3-4.37,13.64,13.64,0,0,1,4.62-2.86,16.46,16.46,0,0,1,5.84-1A13.68,13.68,0,0,1,157,2.9,9.85,9.85,0,0,1,161,6.54a10,10,0,0,1,1.43,5.37,14.07,14.07,0,0,1-1.07,5.59,12.83,12.83,0,0,1-3,4.37,13.64,13.64,0,0,1-4.62,2.86A16.46,16.46,0,0,1,147.92,25.73Zm.66-6.3a5.64,5.64,0,0,0,2.56-.56,5.8,5.8,0,0,0,1.9-1.55,7,7,0,0,0,1.18-2.26,8.85,8.85,0,0,0,.4-2.69,4.92,4.92,0,0,0-.54-2.36,3.9,3.9,0,0,0-1.55-1.57,5,5,0,0,0-2.43-.56A5.53,5.53,0,0,0,145.64,10a6.86,6.86,0,0,0-1.18,2.26,8.85,8.85,0,0,0-.4,2.69,4.82,4.82,0,0,0,.55,2.34,3.77,3.77,0,0,0,1.55,1.59A5,5,0,0,0,148.58,19.43Z"/><path class="cls-1" d="M175.91,25.73a13.73,13.73,0,0,1-6.23-1.32,9.91,9.91,0,0,1-4.06-3.64,10.07,10.07,0,0,1-1.43-5.37,14.25,14.25,0,0,1,1.07-5.59,13,13,0,0,1,3-4.37,13.64,13.64,0,0,1,4.62-2.86,16.46,16.46,0,0,1,5.84-1A13.68,13.68,0,0,1,185,2.9,9.79,9.79,0,0,1,189,6.54a10,10,0,0,1,1.44,5.37,14.25,14.25,0,0,1-1.07,5.59,13.11,13.11,0,0,1-3,4.37,13.64,13.64,0,0,1-4.62,2.86A16.5,16.5,0,0,1,175.91,25.73Zm.65-6.3a5.64,5.64,0,0,0,2.56-.56,5.8,5.8,0,0,0,1.9-1.55,7,7,0,0,0,1.19-2.26,9.16,9.16,0,0,0,.39-2.69,4.92,4.92,0,0,0-.54-2.36,3.84,3.84,0,0,0-1.55-1.57,5,5,0,0,0-2.43-.56,5.68,5.68,0,0,0-2.54.56A5.61,5.61,0,0,0,173.63,10a6.7,6.7,0,0,0-1.19,2.26,9.17,9.17,0,0,0-.4,2.69,4.93,4.93,0,0,0,.55,2.34,3.83,3.83,0,0,0,1.55,1.59A5,5,0,0,0,176.56,19.43Z"/><polygon class="cls-1" points="207.65 12.62 215.17 25.2 206.5 25.2 201.82 17.68 199.64 19.71 198.54 25.2 190.89 25.2 195.51 2.1 203.16 2.1 201.52 10.28 210.29 2.1 219.23 2.1 207.65 12.62"/></g></g></svg>