<svg xmlns="http://www.w3.org/2000/svg" viewBox="0 0 50.04 26.2"><defs><style>.cls-1{fill:#14213c;stroke:#bcbec0;stroke-miterlimit:10;}</style></defs><g id="Layer_2" data-name="Layer 2"><g id="Layer_1-2" data-name="Layer 1"><path class="cls-1" d="M46.21,13.37a8.09,8.09,0,0,0-1.16-.65,8.08,8.08,0,0,0,3.14-2.24,6,6,0,0,0,1.35-4,5.09,5.09,0,0,0-2.27-4.45C45.76,1,43.5.5,40.5.5H27.15l-5,25.2H36.65a19.63,19.63,0,0,0,5.91-.84,9.49,9.49,0,0,0,4.26-2.63,6.55,6.55,0,0,0,1.6-4.55A4.93,4.93,0,0,0,46.21,13.37ZM34.31,6.44h4.14a3.06,3.06,0,0,1,1.64.38A1.27,1.27,0,0,1,40.68,8a2.25,2.25,0,0,1-.28,1.17,1.9,1.9,0,0,1-.92.76,4.11,4.11,0,0,1-1.6.27H33.56Zm4.88,12.75a3.51,3.51,0,0,1-2.07.57H31.65l.79-4h5.47a2.58,2.58,0,0,1,1.46.42A1.38,1.38,0,0,1,40,17.46,2,2,0,0,1,39.19,19.19Z"/><path class="cls-1" d="M.61,25.7,5.65.5H17A16.55,16.55,0,0,1,23.9,1.8a9.94,9.94,0,0,1,4.43,3.69,10.26,10.26,0,0,1,1.55,5.7,14.78,14.78,0,0,1-1.17,6,13.32,13.32,0,0,1-3.28,4.58,14.35,14.35,0,0,1-5,2.91,19.2,19.2,0,0,1-6.34,1Zm9.83-6.62h4a6.86,6.86,0,0,0,3.8-1,6.34,6.34,0,0,0,2.32-2.67,8.55,8.55,0,0,0,.79-3.72,4.88,4.88,0,0,0-.59-2.49A3.9,3.9,0,0,0,19,7.66a6.89,6.89,0,0,0-2.9-.54H12.81Z"/></g></g></svg>